
    <svg width="64" height="64" xmlns="http://www.w3.org/2000/svg">
      <!-- BODY_FRONT (8x12) at (20,20) - Torso frontal -->
      <rect x="20" y="20" width="2" height="1" fill="#783636" class="colorizable-hair"/>
      <rect x="22" y="20" width="4" height="1" fill="#604549" class="colorizable-hair"/>
      <rect x="26" y="20" width="2" height="1" fill="#783636" class="colorizable-hair"/>
      <rect x="20" y="21" width="3" height="1" fill="#743434" class="colorizable-hair"/>
      <rect x="23" y="21" width="2" height="1" fill="#805b61" class="colorizable-hair"/>
      <rect x="25" y="21" width="3" height="1" fill="#743434" class="colorizable-hair"/>
      <rect x="20" y="22" width="1" height="1" fill="#672e2e" class="colorizable-hair"/>
      <rect x="21" y="22" width="2" height="1" fill="#743434" class="colorizable-hair"/>
      <rect x="23" y="22" width="2" height="1" fill="#6a5d50" class="colorizable-hair"/>
      <rect x="25" y="22" width="2" height="1" fill="#743434" class="colorizable-hair"/>
      <rect x="27" y="22" width="1" height="1" fill="#672e2e" class="colorizable-hair"/>
      <rect x="20" y="23" width="1" height="1" fill="#5a2828" class="colorizable-hair"/>
      <rect x="21" y="23" width="2" height="1" fill="#672e2e" class="colorizable-hair"/>
      <rect x="23" y="23" width="2" height="1" fill="#805b61" class="colorizable-hair"/>
      <rect x="25" y="23" width="2" height="1" fill="#672e2e" class="colorizable-hair"/>
      <rect x="27" y="23" width="1" height="1" fill="#5a2828" class="colorizable-hair"/>
      <rect x="20" y="24" width="1" height="1" fill="#672e2e" class="colorizable-hair"/>
      <rect x="21" y="24" width="2" height="1" fill="#743434" class="colorizable-hair"/>
      <rect x="23" y="24" width="2" height="1" fill="#805b61" class="colorizable-hair"/>
      <rect x="25" y="24" width="2" height="1" fill="#743434" class="colorizable-hair"/>
      <rect x="27" y="24" width="1" height="1" fill="#672e2e" class="colorizable-hair"/>
      <rect x="20" y="25" width="1" height="1" fill="#5a2828" class="colorizable-hair"/>
      <rect x="21" y="25" width="2" height="1" fill="#672e2e" class="colorizable-hair"/>
      <rect x="23" y="25" width="2" height="1" fill="#805b61" class="colorizable-hair"/>
      <rect x="25" y="25" width="2" height="1" fill="#672e2e" class="colorizable-hair"/>
      <rect x="27" y="25" width="1" height="1" fill="#5a2828" class="colorizable-hair"/>
      <rect x="20" y="26" width="1" height="1" fill="#805b61" class="colorizable-hair"/>
      <rect x="21" y="26" width="2" height="1" fill="#672e2e" class="colorizable-hair"/>
      <rect x="23" y="26" width="2" height="1" fill="#805b61" class="colorizable-hair"/>
      <rect x="25" y="26" width="2" height="1" fill="#672e2e" class="colorizable-hair"/>
      <rect x="27" y="26" width="1" height="1" fill="#805b61" class="colorizable-hair"/>
      <rect x="20" y="27" width="1" height="1" fill="#805b61" class="colorizable-hair"/>
      <rect x="21" y="27" width="2" height="1" fill="#5a2828" class="colorizable-hair"/>
      <rect x="23" y="27" width="2" height="1" fill="#6a5d50" class="colorizable-hair"/>
      <rect x="25" y="27" width="2" height="1" fill="#5a2828" class="colorizable-hair"/>
      <rect x="27" y="27" width="1" height="1" fill="#805b61" class="colorizable-hair"/>
      <rect x="20" y="28" width="1" height="1" fill="#805b61" class="colorizable-hair"/>
      <rect x="21" y="28" width="2" height="1" fill="#5a2828" class="colorizable-hair"/>
      <rect x="23" y="28" width="2" height="1" fill="#805b61" class="colorizable-hair"/>
      <rect x="25" y="28" width="2" height="1" fill="#5a2828" class="colorizable-hair"/>
      <rect x="27" y="28" width="1" height="1" fill="#805b61" class="colorizable-hair"/>
      <rect x="20" y="29" width="2" height="1" fill="#805b61" class="colorizable-hair"/>
      <rect x="22" y="29" width="1" height="1" fill="#4d2323" class="colorizable-hair"/>
      <rect x="23" y="29" width="2" height="1" fill="#805b61" class="colorizable-hair"/>
      <rect x="25" y="29" width="1" height="1" fill="#4d2323" class="colorizable-hair"/>
      <rect x="26" y="29" width="2" height="1" fill="#805b61" class="colorizable-hair"/>
      <rect x="20" y="30" width="8" height="1" fill="#805b61" class="colorizable-hair"/>
      <rect x="20" y="31" width="8" height="1" fill="#805b61" class="colorizable-hair"/>

      <!-- BODY_BACK (4x12) at (32,20) - Torso trasero - Solo píxeles de pelo -->
      <!-- Fila y=20: mechones superiores -->
      <rect x="32" y="20" width="1" height="1" fill="#743434" class="colorizable-hair"/>
      <rect x="33" y="20" width="2" height="1" fill="#672e2e" class="colorizable-hair"/>
      <rect x="35" y="20" width="1" height="1" fill="#743434" class="colorizable-hair"/>
      <rect x="36" y="20" width="1" height="1" fill="#783636" class="colorizable-hair"/>
      <!-- Fila y=21: [32] = piel (outfit), mechones en 33-36 -->
      <rect x="33" y="21" width="1" height="1" fill="#743434" class="colorizable-hair"/>
      <rect x="34" y="21" width="2" height="1" fill="#672e2e" class="colorizable-hair"/>
      <rect x="36" y="21" width="1" height="1" fill="#5a2828" class="colorizable-hair"/>
      <!-- Fila y=22: mechones completos -->
      <rect x="32" y="22" width="2" height="1" fill="#672e2e" class="colorizable-hair"/>
      <rect x="34" y="22" width="2" height="1" fill="#5a2828" class="colorizable-hair"/>
      <!-- Fila y=23: mechones completos -->
      <rect x="32" y="23" width="1" height="1" fill="#672e2e" class="colorizable-hair"/>
      <rect x="33" y="23" width="2" height="1" fill="#743434" class="colorizable-hair"/>
      <rect x="35" y="23" width="1" height="1" fill="#783636" class="colorizable-hair"/>
      <!-- Fila y=24: [32] = piel (outfit), mechones en 33-35 -->
      <rect x="33" y="24" width="2" height="1" fill="#672e2e" class="colorizable-hair"/>
      <rect x="35" y="24" width="1" height="1" fill="#743434" class="colorizable-hair"/>
      <!-- Fila y=25: [32,33] = piel (outfit), mechones en 34-36 -->
      <rect x="34" y="25" width="2" height="1" fill="#672e2e" class="colorizable-hair"/>
      <rect x="36" y="25" width="1" height="1" fill="#5a2828" class="colorizable-hair"/>
      <!-- Fila y=26: mechones completos con detalle en 36 -->
      <rect x="32" y="26" width="1" height="1" fill="#743434" class="colorizable-hair"/>
      <rect x="33" y="26" width="2" height="1" fill="#672e2e" class="colorizable-hair"/>
      <rect x="35" y="26" width="1" height="1" fill="#5a2828" class="colorizable-hair"/>
      <rect x="36" y="26" width="1" height="1" fill="#5a2828" class="colorizable-hair"/>
      <!-- Fila y=27: mechones completos -->
      <rect x="32" y="27" width="1" height="1" fill="#672e2e" class="colorizable-hair"/>
      <rect x="33" y="27" width="2" height="1" fill="#743434" class="colorizable-hair"/>
      <rect x="35" y="27" width="1" height="1" fill="#783636" class="colorizable-hair"/>
      <!-- Fila y=28: [32,35] = piel (outfit), mechones en 33-34 -->
      <rect x="33" y="28" width="1" height="1" fill="#672e2e" class="colorizable-hair"/>
      <rect x="34" y="28" width="1" height="1" fill="#743434" class="colorizable-hair"/>
      <!-- Fila y=29: mechones completos -->
      <rect x="32" y="29" width="2" height="1" fill="#672e2e" class="colorizable-hair"/>
      <rect x="34" y="29" width="2" height="1" fill="#5a2828" class="colorizable-hair"/>
      <!-- Fila y=30: [32,35] = piel (outfit), mechones en 33-34 -->
      <rect x="33" y="30" width="2" height="1" fill="#5a2828" class="colorizable-hair"/>
      <!-- Fila y=31: toda piel (outfit), sin mechones -->

      <!-- BODY_RIGHT (4x12) at (16,20) - Torso derecho -->
      <rect x="16" y="20" width="1" height="1" fill="#783636" class="colorizable-hair"/>
      <rect x="17" y="20" width="2" height="1" fill="#743434" class="colorizable-hair"/>
      <rect x="19" y="20" width="1" height="1" fill="#705055" class="colorizable-hair"/>
      <rect x="16" y="21" width="1" height="1" fill="#743434" class="colorizable-hair"/>
      <rect x="17" y="21" width="2" height="1" fill="#672e2e" class="colorizable-hair"/>
      <rect x="19" y="21" width="1" height="1" fill="#743434" class="colorizable-hair"/>
      <rect x="16" y="22" width="1" height="1" fill="#672e2e" class="colorizable-hair"/>
      <rect x="17" y="22" width="2" height="1" fill="#743434" class="colorizable-hair"/>
      <rect x="19" y="22" width="1" height="1" fill="#5a2828" class="colorizable-hair"/>
      <rect x="16" y="23" width="1" height="1" fill="#5a2828" class="colorizable-hair"/>
      <rect x="17" y="23" width="2" height="1" fill="#672e2e" class="colorizable-hair"/>
      <rect x="19" y="23" width="1" height="1" fill="#5a2828" class="colorizable-hair"/>
      <rect x="16" y="24" width="1" height="1" fill="#705055" class="colorizable-hair"/>
      <rect x="17" y="24" width="2" height="1" fill="#672e2e" class="colorizable-hair"/>
      <rect x="19" y="24" width="1" height="1" fill="#705055" class="colorizable-hair"/>
      <rect x="16" y="25" width="1" height="1" fill="#705055" class="colorizable-hair"/>
      <rect x="17" y="25" width="3" height="1" fill="#5a2828" class="colorizable-hair"/>
      <rect x="16" y="26" width="1" height="1" fill="#705055" class="colorizable-hair"/>
      <rect x="17" y="26" width="2" height="1" fill="#5a2828" class="colorizable-hair"/>
      <rect x="19" y="26" width="1" height="1" fill="#705055" class="colorizable-hair"/>
      <rect x="16" y="27" width="1" height="1" fill="#705055" class="colorizable-hair"/>
      <rect x="17" y="27" width="2" height="1" fill="#672e2e" class="colorizable-hair"/>
      <rect x="19" y="27" width="1" height="1" fill="#705055" class="colorizable-hair"/>
      <rect x="16" y="28" width="1" height="1" fill="#705055" class="colorizable-hair"/>
      <rect x="17" y="28" width="2" height="1" fill="#5a2828" class="colorizable-hair"/>
      <rect x="19" y="28" width="1" height="1" fill="#705055" class="colorizable-hair"/>
      <rect x="16" y="29" width="1" height="1" fill="#705055" class="colorizable-hair"/>
      <rect x="17" y="29" width="2" height="1" fill="#5a2828" class="colorizable-hair"/>
      <rect x="19" y="29" width="1" height="1" fill="#705055" class="colorizable-hair"/>
      <rect x="16" y="30" width="2" height="1" fill="#705055" class="colorizable-hair"/>
      <rect x="18" y="30" width="1" height="1" fill="#4d2323" class="colorizable-hair"/>
      <rect x="19" y="30" width="1" height="1" fill="#705055" class="colorizable-hair"/>
      <rect x="16" y="31" width="1" height="1" fill="#705055" class="colorizable-hair"/>
      <rect x="17" y="31" width="1" height="1" fill="#4d2323" class="colorizable-hair"/>
      <rect x="18" y="31" width="2" height="1" fill="#705055" class="colorizable-hair"/>

      <!-- BODY_LEFT (4x12) at (28,20) - Torso izquierdo -->
      <rect x="28" y="20" width="1" height="1" fill="#705055" class="colorizable-hair"/>
      <rect x="29" y="20" width="2" height="1" fill="#743434" class="colorizable-hair"/>
      <rect x="31" y="20" width="1" height="1" fill="#783636" class="colorizable-hair"/>
      <rect x="28" y="21" width="1" height="1" fill="#743434" class="colorizable-hair"/>
      <rect x="29" y="21" width="2" height="1" fill="#672e2e" class="colorizable-hair"/>
      <rect x="31" y="21" width="1" height="1" fill="#743434" class="colorizable-hair"/>
      <rect x="28" y="22" width="1" height="1" fill="#5a2828" class="colorizable-hair"/>
      <rect x="29" y="22" width="2" height="1" fill="#743434" class="colorizable-hair"/>
      <rect x="31" y="22" width="1" height="1" fill="#672e2e" class="colorizable-hair"/>
      <rect x="28" y="23" width="1" height="1" fill="#5a2828" class="colorizable-hair"/>
      <rect x="29" y="23" width="2" height="1" fill="#672e2e" class="colorizable-hair"/>
      <rect x="31" y="23" width="1" height="1" fill="#5a2828" class="colorizable-hair"/>
      <rect x="28" y="24" width="1" height="1" fill="#705055" class="colorizable-hair"/>
      <rect x="29" y="24" width="2" height="1" fill="#672e2e" class="colorizable-hair"/>
      <rect x="31" y="24" width="1" height="1" fill="#5a2828" class="colorizable-hair"/>
      <rect x="28" y="25" width="3" height="1" fill="#5a2828" class="colorizable-hair"/>
      <rect x="31" y="25" width="1" height="1" fill="#783636" class="colorizable-hair"/>
      <rect x="28" y="26" width="1" height="1" fill="#705055" class="colorizable-hair"/>
      <rect x="29" y="26" width="2" height="1" fill="#5a2828" class="colorizable-hair"/>
      <rect x="31" y="26" width="1" height="1" fill="#705055" class="colorizable-hair"/>
      <rect x="28" y="27" width="1" height="1" fill="#705055" class="colorizable-hair"/>
      <rect x="29" y="27" width="3" height="1" fill="#672e2e" class="colorizable-hair"/>
      <rect x="28" y="28" width="1" height="1" fill="#705055" class="colorizable-hair"/>
      <rect x="29" y="28" width="3" height="1" fill="#5a2828" class="colorizable-hair"/>
      <rect x="28" y="29" width="1" height="1" fill="#705055" class="colorizable-hair"/>
      <rect x="29" y="29" width="2" height="1" fill="#5a2828" class="colorizable-hair"/>
      <rect x="31" y="29" width="1" height="1" fill="#743434" class="colorizable-hair"/>
      <rect x="28" y="30" width="1" height="1" fill="#705055" class="colorizable-hair"/>
      <rect x="29" y="30" width="1" height="1" fill="#4d2323" class="colorizable-hair"/>
      <rect x="30" y="30" width="2" height="1" fill="#705055" class="colorizable-hair"/>
      <rect x="28" y="31" width="2" height="1" fill="#705055" class="colorizable-hair"/>
      <rect x="30" y="31" width="1" height="1" fill="#4d2323" class="colorizable-hair"/>
      <rect x="31" y="31" width="1" height="1" fill="#705055" class="colorizable-hair"/>
    </svg>
  