
    <svg width="64" height="64" xmlns="http://www.w3.org/2000/svg">
      <!-- ARM RIGHT (todas las caras del brazo derecho) -->
      <!-- ARM_R_TOP (4x4) at (44,16) -->
      <rect x="44" y="16" width="4" height="4" fill="#909090" class="colorizable-skin"/>

      <!-- ARM_R_BOTTOM (4x4) at (48,16) -->
      <rect x="48" y="16" width="4" height="4" fill="#707070" class="colorizable-skin"/>

      <!-- ARM_R_RIGHT (4x12) at (40,20) -->
      <rect x="40" y="20" width="4" height="12" fill="#808080" class="colorizable-skin"/>
      <!-- Sombra lateral -->
      <rect x="40" y="20" width="1" height="12" fill="#707070" class="colorizable-skin" opacity="0.4"/>

      <!-- ARM_R_FRONT (4x12) at (44,20) -->
      <rect x="44" y="20" width="4" height="12" fill="#909090" class="colorizable-skin"/>
      <!-- Definición antebrazo -->
      <rect x="45" y="26" width="1" height="6" fill="#808080" class="colorizable-skin" opacity="0.2"/>

      <!-- ARM_R_LEFT (4x12) at (48,20) -->
      <rect x="48" y="20" width="4" height="12" fill="#808080" class="colorizable-skin"/>
      <!-- Sombra lateral -->
      <rect x="51" y="20" width="1" height="12" fill="#707070" class="colorizable-skin" opacity="0.4"/>

      <!-- ARM_R_BACK (4x12) at (52,20) -->
      <rect x="52" y="20" width="4" height="12" fill="#707070" class="colorizable-skin"/>

      <!-- ARM LEFT (todas las caras del brazo izquierdo) -->
      <!-- ARM_L_TOP (4x4) at (36,48) -->
      <rect x="36" y="48" width="4" height="4" fill="#909090" class="colorizable-skin"/>

      <!-- ARM_L_BOTTOM (4x4) at (40,48) -->
      <rect x="40" y="48" width="4" height="4" fill="#707070" class="colorizable-skin"/>

      <!-- ARM_L_RIGHT (4x12) at (32,52) -->
      <rect x="32" y="52" width="4" height="12" fill="#808080" class="colorizable-skin"/>
      <!-- Sombra lateral -->
      <rect x="32" y="52" width="1" height="12" fill="#707070" class="colorizable-skin" opacity="0.4"/>

      <!-- ARM_L_FRONT (4x12) at (36,52) -->
      <rect x="36" y="52" width="4" height="12" fill="#909090" class="colorizable-skin"/>
      <!-- Definición antebrazo -->
      <rect x="37" y="58" width="1" height="6" fill="#808080" class="colorizable-skin" opacity="0.2"/>

      <!-- ARM_L_LEFT (4x12) at (40,52) -->
      <rect x="40" y="52" width="4" height="12" fill="#808080" class="colorizable-skin"/>
      <!-- Sombra lateral -->
      <rect x="43" y="52" width="1" height="12" fill="#707070" class="colorizable-skin" opacity="0.4"/>

      <!-- ARM_L_BACK (4x12) at (44,52) -->
      <rect x="44" y="52" width="4" height="12" fill="#707070" class="colorizable-skin"/>
    </svg>
  