
    <svg width="64" height="64" xmlns="http://www.w3.org/2000/svg">
      <!-- BODY FRONT (8x12) at (20,20) -->
      <!-- Solapa izquierda -->
      <rect x="20" y="20" width="3" height="12" fill="#707070" class="colorizable-clothing"/>
      <!-- Solapa derecha -->
      <rect x="25" y="20" width="3" height="12" fill="#707070" class="colorizable-clothing"/>
      <!-- Cuello -->
      <rect x="21" y="20" width="6" height="1" fill="#606060" class="colorizable-clothing"/>
      <!-- Botones/cremallera -->
      <rect x="23" y="21" width="2" height="1" fill="#303030"/>
      <rect x="23" y="23" width="2" height="1" fill="#303030"/>
      <rect x="23" y="25" width="2" height="1" fill="#303030"/>
      <!-- Bolsillos -->
      <rect x="21" y="27" width="2" height="2" fill="#505050" opacity="0.7"/>
      <rect x="25" y="27" width="2" height="2" fill="#505050" opacity="0.7"/>

      <!-- BODY BACK (8x12) at (32,20) -->
      <rect x="32" y="20" width="8" height="12" fill="#606060" class="colorizable-clothing"/>

      <!-- MANGAS BRAZO DERECHO (dejan 3px para manos) -->
      <!-- ARM_R_TOP (4x4) at (44,16) -->
      <rect x="44" y="16" width="4" height="4" fill="#707070" class="colorizable-clothing"/>

      <!-- ARM_R_BOTTOM (4x4) at (48,16) -->
      <rect x="48" y="16" width="4" height="4" fill="#505050" class="colorizable-clothing"/>

      <!-- ARM_R_RIGHT (4x9) at (40,20) - Solo 9px, deja 3px para manos -->
      <rect x="40" y="20" width="4" height="9" fill="#606060" class="colorizable-clothing"/>

      <!-- ARM_R_FRONT (4x9) at (44,20) -->
      <rect x="44" y="20" width="4" height="9" fill="#707070" class="colorizable-clothing"/>

      <!-- ARM_R_LEFT (4x9) at (48,20) -->
      <rect x="48" y="20" width="4" height="9" fill="#606060" class="colorizable-clothing"/>

      <!-- ARM_R_BACK (4x9) at (52,20) -->
      <rect x="52" y="20" width="4" height="9" fill="#505050" class="colorizable-clothing"/>

      <!-- MANGAS BRAZO IZQUIERDO (dejan 3px para manos) -->
      <!-- ARM_L_TOP (4x4) at (36,48) -->
      <rect x="36" y="48" width="4" height="4" fill="#707070" class="colorizable-clothing"/>

      <!-- ARM_L_BOTTOM (4x4) at (40,48) -->
      <rect x="40" y="48" width="4" height="4" fill="#505050" class="colorizable-clothing"/>

      <!-- ARM_L_RIGHT (4x9) at (32,52) - Solo 9px, deja 3px para manos -->
      <rect x="32" y="52" width="4" height="9" fill="#606060" class="colorizable-clothing"/>

      <!-- ARM_L_FRONT (4x9) at (36,52) -->
      <rect x="36" y="52" width="4" height="9" fill="#707070" class="colorizable-clothing"/>

      <!-- ARM_L_LEFT (4x9) at (40,52) -->
      <rect x="40" y="52" width="4" height="9" fill="#606060" class="colorizable-clothing"/>

      <!-- ARM_L_BACK (4x9) at (44,52) -->
      <rect x="44" y="52" width="4" height="9" fill="#505050" class="colorizable-clothing"/>
    </svg>
  