
    <svg width="64" height="64" xmlns="http://www.w3.org/2000/svg">
      <!-- HEAD_TOP (8x8) at (8,0) - Cabeza superior -->
      <rect x="8" y="0" width="1" height="1" fill="#20150d" class="colorizable-skin"/>
      <rect x="9" y="0" width="1" height="1" fill="#291c11" class="colorizable-skin"/>
      <rect x="10" y="0" width="1" height="1" fill="#2c1e11" class="colorizable-skin"/>
      <rect x="11" y="0" width="1" height="1" fill="#271a11" class="colorizable-skin"/>
      <rect x="12" y="0" width="1" height="1" fill="#2b1f12" class="colorizable-skin"/>
      <rect x="13" y="0" width="1" height="1" fill="#271b10" class="colorizable-skin"/>
      <rect x="14" y="0" width="1" height="1" fill="#291c11" class="colorizable-skin"/>
      <rect x="15" y="0" width="1" height="1" fill="#25190f" class="colorizable-skin"/>
      <rect x="8" y="1" width="1" height="1" fill="#25180f" class="colorizable-skin"/>
      <rect x="9" y="1" width="1" height="1" fill="#302113" class="colorizable-skin"/>
      <rect x="10" y="1" width="1" height="1" fill="#1f150c" class="colorizable-skin"/>
      <rect x="11" y="1" width="1" height="1" fill="#23180f" class="colorizable-skin"/>
      <rect x="12" y="1" width="1" height="1" fill="#21150e" class="colorizable-skin"/>
      <rect x="13" y="1" width="1" height="1" fill="#1f170d" class="colorizable-skin"/>
      <rect x="14" y="1" width="1" height="1" fill="#291c11" class="colorizable-skin"/>
      <rect x="15" y="1" width="1" height="1" fill="#2c1e13" class="colorizable-skin"/>
      <rect x="8" y="2" width="1" height="1" fill="#281b11" class="colorizable-skin"/>
      <rect x="9" y="2" width="1" height="1" fill="#291c11" class="colorizable-skin"/>
      <rect x="10" y="2" width="1" height="1" fill="#281b11" class="colorizable-skin"/>
      <rect x="11" y="2" width="1" height="1" fill="#291a10" class="colorizable-skin"/>
      <rect x="12" y="2" width="1" height="1" fill="#291c12" class="colorizable-skin"/>
      <rect x="13" y="2" width="1" height="1" fill="#1e160d" class="colorizable-skin"/>
      <rect x="14" y="2" width="1" height="1" fill="#2e1e13" class="colorizable-skin"/>
      <rect x="15" y="2" width="1" height="1" fill="#302114" class="colorizable-skin"/>
      <rect x="8" y="3" width="1" height="1" fill="#302013" class="colorizable-skin"/>
      <rect x="9" y="3" width="1" height="1" fill="#24190e" class="colorizable-skin"/>
      <rect x="10" y="3" width="1" height="1" fill="#21180f" class="colorizable-skin"/>
      <rect x="11" y="3" width="1" height="1" fill="#27190f" class="colorizable-skin"/>
      <rect x="12" y="3" width="1" height="1" fill="#291d12" class="colorizable-skin"/>
      <rect x="13" y="3" width="1" height="1" fill="#291c10" class="colorizable-skin"/>
      <rect x="14" y="3" width="1" height="1" fill="#271a11" class="colorizable-skin"/>
      <rect x="15" y="3" width="1" height="1" fill="#2e1e15" class="colorizable-skin"/>
      <rect x="8" y="4" width="1" height="1" fill="#22160f" class="colorizable-skin"/>
      <rect x="9" y="4" width="1" height="1" fill="#261a10" class="colorizable-skin"/>
      <rect x="10" y="4" width="1" height="1" fill="#231a0f" class="colorizable-skin"/>
      <rect x="11" y="4" width="1" height="1" fill="#281a0f" class="colorizable-skin"/>
      <rect x="12" y="4" width="1" height="1" fill="#261a10" class="colorizable-skin"/>
      <rect x="13" y="4" width="1" height="1" fill="#2e1d14" class="colorizable-skin"/>
      <rect x="14" y="4" width="1" height="1" fill="#2e2014" class="colorizable-skin"/>
      <rect x="15" y="4" width="1" height="1" fill="#2d1f11" class="colorizable-skin"/>
      <rect x="8" y="5" width="1" height="1" fill="#2d1f14" class="colorizable-skin"/>
      <rect x="9" y="5" width="1" height="1" fill="#291c11" class="colorizable-skin"/>
      <rect x="10" y="5" width="1" height="1" fill="#2d1e13" class="colorizable-skin"/>
      <rect x="11" y="5" width="1" height="1" fill="#251a11" class="colorizable-skin"/>
      <rect x="12" y="5" width="1" height="1" fill="#281b11" class="colorizable-skin"/>
      <rect x="13" y="5" width="1" height="1" fill="#2a1b11" class="colorizable-skin"/>
      <rect x="14" y="5" width="1" height="1" fill="#2b1d12" class="colorizable-skin"/>
      <rect x="15" y="5" width="1" height="1" fill="#2b1c12" class="colorizable-skin"/>
      <rect x="8" y="6" width="1" height="1" fill="#24180f" class="colorizable-skin"/>
      <rect x="9" y="6" width="1" height="1" fill="#2b1e11" class="colorizable-skin"/>
      <rect x="10" y="6" width="1" height="1" fill="#251a0f" class="colorizable-skin"/>
      <rect x="11" y="6" width="1" height="1" fill="#271c12" class="colorizable-skin"/>
      <rect x="12" y="6" width="1" height="1" fill="#322416" class="colorizable-skin"/>
      <rect x="13" y="6" width="1" height="1" fill="#2a1c11" class="colorizable-skin"/>
      <rect x="14" y="6" width="1" height="1" fill="#2b1f10" class="colorizable-skin"/>
      <rect x="15" y="6" width="1" height="1" fill="#24190d" class="colorizable-skin"/>
      <rect x="8" y="7" width="1" height="1" fill="#372617" class="colorizable-skin"/>
      <rect x="9" y="7" width="1" height="1" fill="#22180f" class="colorizable-skin"/>
      <rect x="10" y="7" width="1" height="1" fill="#3a2718" class="colorizable-skin"/>
      <rect x="11" y="7" width="1" height="1" fill="#22170e" class="colorizable-skin"/>
      <rect x="12" y="7" width="1" height="1" fill="#251710" class="colorizable-skin"/>
      <rect x="13" y="7" width="1" height="1" fill="#2a1c10" class="colorizable-skin"/>
      <rect x="14" y="7" width="1" height="1" fill="#261910" class="colorizable-skin"/>
      <rect x="15" y="7" width="1" height="1" fill="#2e1f15" class="colorizable-skin"/>

      <!-- HEAD_BOTTOM (8x8) at (16,0) - Cabeza inferior -->
      <rect x="16" y="0" width="1" height="1" fill="#706253" class="colorizable-skin"/>
      <rect x="17" y="0" width="1" height="1" fill="#706253" class="colorizable-skin"/>
      <rect x="18" y="0" width="1" height="1" fill="#706253" class="colorizable-skin"/>
      <rect x="19" y="0" width="1" height="1" fill="#706253" class="colorizable-skin"/>
      <rect x="20" y="0" width="1" height="1" fill="#706253" class="colorizable-skin"/>
      <rect x="21" y="0" width="1" height="1" fill="#706253" class="colorizable-skin"/>
      <rect x="22" y="0" width="1" height="1" fill="#706253" class="colorizable-skin"/>
      <rect x="23" y="0" width="1" height="1" fill="#706253" class="colorizable-skin"/>
      <rect x="16" y="1" width="1" height="1" fill="#706253" class="colorizable-skin"/>
      <rect x="17" y="1" width="1" height="1" fill="#706253" class="colorizable-skin"/>
      <rect x="18" y="1" width="1" height="1" fill="#706253" class="colorizable-skin"/>
      <rect x="19" y="1" width="1" height="1" fill="#706253" class="colorizable-skin"/>
      <rect x="20" y="1" width="1" height="1" fill="#706253" class="colorizable-skin"/>
      <rect x="21" y="1" width="1" height="1" fill="#706253" class="colorizable-skin"/>
      <rect x="22" y="1" width="1" height="1" fill="#706253" class="colorizable-skin"/>
      <rect x="23" y="1" width="1" height="1" fill="#706253" class="colorizable-skin"/>
      <rect x="16" y="2" width="1" height="1" fill="#706253" class="colorizable-skin"/>
      <rect x="17" y="2" width="1" height="1" fill="#706253" class="colorizable-skin"/>
      <rect x="18" y="2" width="1" height="1" fill="#706253" class="colorizable-skin"/>
      <rect x="19" y="2" width="1" height="1" fill="#706253" class="colorizable-skin"/>
      <rect x="20" y="2" width="1" height="1" fill="#706253" class="colorizable-skin"/>
      <rect x="21" y="2" width="1" height="1" fill="#706253" class="colorizable-skin"/>
      <rect x="22" y="2" width="1" height="1" fill="#706253" class="colorizable-skin"/>
      <rect x="23" y="2" width="1" height="1" fill="#706253" class="colorizable-skin"/>
      <rect x="16" y="3" width="1" height="1" fill="#706253" class="colorizable-skin"/>
      <rect x="17" y="3" width="1" height="1" fill="#706253" class="colorizable-skin"/>
      <rect x="18" y="3" width="1" height="1" fill="#706253" class="colorizable-skin"/>
      <rect x="19" y="3" width="1" height="1" fill="#706253" class="colorizable-skin"/>
      <rect x="20" y="3" width="1" height="1" fill="#706253" class="colorizable-skin"/>
      <rect x="21" y="3" width="1" height="1" fill="#706253" class="colorizable-skin"/>
      <rect x="22" y="3" width="1" height="1" fill="#706253" class="colorizable-skin"/>
      <rect x="23" y="3" width="1" height="1" fill="#706253" class="colorizable-skin"/>
      <rect x="16" y="4" width="1" height="1" fill="#706253" class="colorizable-skin"/>
      <rect x="17" y="4" width="1" height="1" fill="#706253" class="colorizable-skin"/>
      <rect x="18" y="4" width="1" height="1" fill="#706253" class="colorizable-skin"/>
      <rect x="19" y="4" width="1" height="1" fill="#706253" class="colorizable-skin"/>
      <rect x="20" y="4" width="1" height="1" fill="#706253" class="colorizable-skin"/>
      <rect x="21" y="4" width="1" height="1" fill="#706253" class="colorizable-skin"/>
      <rect x="22" y="4" width="1" height="1" fill="#706253" class="colorizable-skin"/>
      <rect x="23" y="4" width="1" height="1" fill="#706253" class="colorizable-skin"/>
      <rect x="16" y="5" width="1" height="1" fill="#706253" class="colorizable-skin"/>
      <rect x="17" y="5" width="1" height="1" fill="#706253" class="colorizable-skin"/>
      <rect x="18" y="5" width="1" height="1" fill="#706253" class="colorizable-skin"/>
      <rect x="19" y="5" width="1" height="1" fill="#706253" class="colorizable-skin"/>
      <rect x="20" y="5" width="1" height="1" fill="#706253" class="colorizable-skin"/>
      <rect x="21" y="5" width="1" height="1" fill="#706253" class="colorizable-skin"/>
      <rect x="22" y="5" width="1" height="1" fill="#706253" class="colorizable-skin"/>
      <rect x="23" y="5" width="1" height="1" fill="#706253" class="colorizable-skin"/>
      <rect x="16" y="6" width="1" height="1" fill="#706253" class="colorizable-skin"/>
      <rect x="17" y="6" width="1" height="1" fill="#706253" class="colorizable-skin"/>
      <rect x="18" y="6" width="1" height="1" fill="#706253" class="colorizable-skin"/>
      <rect x="19" y="6" width="1" height="1" fill="#706253" class="colorizable-skin"/>
      <rect x="20" y="6" width="1" height="1" fill="#706253" class="colorizable-skin"/>
      <rect x="21" y="6" width="1" height="1" fill="#706253" class="colorizable-skin"/>
      <rect x="22" y="6" width="1" height="1" fill="#706253" class="colorizable-skin"/>
      <rect x="23" y="6" width="1" height="1" fill="#706253" class="colorizable-skin"/>
      <rect x="16" y="7" width="1" height="1" fill="#706253" class="colorizable-skin"/>
      <rect x="17" y="7" width="1" height="1" fill="#706253" class="colorizable-skin"/>
      <rect x="18" y="7" width="1" height="1" fill="#706253" class="colorizable-skin"/>
      <rect x="19" y="7" width="1" height="1" fill="#706253" class="colorizable-skin"/>
      <rect x="20" y="7" width="1" height="1" fill="#706253" class="colorizable-skin"/>
      <rect x="21" y="7" width="1" height="1" fill="#706253" class="colorizable-skin"/>
      <rect x="22" y="7" width="1" height="1" fill="#706253" class="colorizable-skin"/>
      <rect x="23" y="7" width="1" height="1" fill="#706253" class="colorizable-skin"/>

      <!-- HEAD_RIGHT (8x8) at (0,8) - Cabeza derecha -->
      <rect x="0" y="8" width="1" height="1" fill="#2d1f12" class="colorizable-skin"/>
      <rect x="1" y="8" width="1" height="1" fill="#22180d" class="colorizable-skin"/>
      <rect x="2" y="8" width="1" height="1" fill="#2c1d12" class="colorizable-skin"/>
      <rect x="3" y="8" width="1" height="1" fill="#2a1c11" class="colorizable-skin"/>
      <rect x="4" y="8" width="1" height="1" fill="#281c12" class="colorizable-skin"/>
      <rect x="5" y="8" width="1" height="1" fill="#2b1d12" class="colorizable-skin"/>
      <rect x="6" y="8" width="1" height="1" fill="#342216" class="colorizable-skin"/>
      <rect x="7" y="8" width="1" height="1" fill="#2d1f13" class="colorizable-skin"/>
      <rect x="0" y="9" width="1" height="1" fill="#2a1c11" class="colorizable-skin"/>
      <rect x="1" y="9" width="1" height="1" fill="#291c12" class="colorizable-skin"/>
      <rect x="2" y="9" width="1" height="1" fill="#261a10" class="colorizable-skin"/>
      <rect x="3" y="9" width="1" height="1" fill="#22170c" class="colorizable-skin"/>
      <rect x="4" y="9" width="1" height="1" fill="#271a10" class="colorizable-skin"/>
      <rect x="5" y="9" width="1" height="1" fill="#2f2113" class="colorizable-skin"/>
      <rect x="6" y="9" width="1" height="1" fill="#342615" class="colorizable-skin"/>
      <rect x="7" y="9" width="1" height="1" fill="#2c1f11" class="colorizable-skin"/>
      <rect x="0" y="10" width="1" height="1" fill="#66564a" class="colorizable-skin"/>
      <rect x="1" y="10" width="1" height="1" fill="#66564a" class="colorizable-skin"/>
      <rect x="2" y="10" width="1" height="1" fill="#66564a" class="colorizable-skin"/>
      <rect x="3" y="10" width="1" height="1" fill="#66564a" class="colorizable-skin"/>
      <rect x="4" y="10" width="1" height="1" fill="#66564a" class="colorizable-skin"/>
      <rect x="5" y="10" width="1" height="1" fill="#66564a" class="colorizable-skin"/>
      <rect x="6" y="10" width="1" height="1" fill="#66564a" class="colorizable-skin"/>
      <rect x="7" y="10" width="1" height="1" fill="#171308" class="colorizable-skin"/>
      <rect x="0" y="11" width="1" height="1" fill="#66564a" class="colorizable-skin"/>
      <rect x="1" y="11" width="1" height="1" fill="#66564a" class="colorizable-skin"/>
      <rect x="2" y="11" width="1" height="1" fill="#66564a" class="colorizable-skin"/>
      <rect x="3" y="11" width="1" height="1" fill="#66564a" class="colorizable-skin"/>
      <rect x="4" y="11" width="1" height="1" fill="#66564a" class="colorizable-skin"/>
      <rect x="5" y="11" width="1" height="1" fill="#66564a" class="colorizable-skin"/>
      <rect x="6" y="11" width="1" height="1" fill="#80705f" class="colorizable-skin"/>
      <rect x="7" y="11" width="1" height="1" fill="#8b7a68" class="colorizable-skin"/>
      <rect x="0" y="12" width="1" height="1" fill="#66564a" class="colorizable-skin"/>
      <rect x="1" y="12" width="1" height="1" fill="#66564a" class="colorizable-skin"/>
      <rect x="2" y="12" width="1" height="1" fill="#66564a" class="colorizable-skin"/>
      <rect x="3" y="12" width="1" height="1" fill="#66564a" class="colorizable-skin"/>
      <rect x="4" y="12" width="1" height="1" fill="#80705f" class="colorizable-skin"/>
      <rect x="5" y="12" width="1" height="1" fill="#66564a" class="colorizable-skin"/>
      <rect x="6" y="12" width="1" height="1" fill="#80705f" class="colorizable-skin"/>
      <rect x="7" y="12" width="1" height="1" fill="#80705f" class="colorizable-skin"/>
      <rect x="0" y="13" width="1" height="1" fill="#66564a" class="colorizable-skin"/>
      <rect x="1" y="13" width="1" height="1" fill="#66564a" class="colorizable-skin"/>
      <rect x="2" y="13" width="1" height="1" fill="#66564a" class="colorizable-skin"/>
      <rect x="3" y="13" width="1" height="1" fill="#66564a" class="colorizable-skin"/>
      <rect x="4" y="13" width="1" height="1" fill="#80705f" class="colorizable-skin"/>
      <rect x="5" y="13" width="1" height="1" fill="#80705f" class="colorizable-skin"/>
      <rect x="6" y="13" width="1" height="1" fill="#80705f" class="colorizable-skin"/>
      <rect x="7" y="13" width="1" height="1" fill="#80705f" class="colorizable-skin"/>
      <rect x="0" y="14" width="1" height="1" fill="#66564a" class="colorizable-skin"/>
      <rect x="1" y="14" width="1" height="1" fill="#80705f" class="colorizable-skin"/>
      <rect x="2" y="14" width="1" height="1" fill="#80705f" class="colorizable-skin"/>
      <rect x="3" y="14" width="1" height="1" fill="#80705f" class="colorizable-skin"/>
      <rect x="4" y="14" width="1" height="1" fill="#80705f" class="colorizable-skin"/>
      <rect x="5" y="14" width="1" height="1" fill="#80705f" class="colorizable-skin"/>
      <rect x="6" y="14" width="1" height="1" fill="#80705f" class="colorizable-skin"/>
      <rect x="7" y="14" width="1" height="1" fill="#80705f" class="colorizable-skin"/>
      <rect x="0" y="15" width="1" height="1" fill="#80705f" class="colorizable-skin"/>
      <rect x="1" y="15" width="1" height="1" fill="#80705f" class="colorizable-skin"/>
      <rect x="2" y="15" width="1" height="1" fill="#80705f" class="colorizable-skin"/>
      <rect x="3" y="15" width="1" height="1" fill="#80705f" class="colorizable-skin"/>
      <rect x="4" y="15" width="1" height="1" fill="#80705f" class="colorizable-skin"/>
      <rect x="5" y="15" width="1" height="1" fill="#80705f" class="colorizable-skin"/>
      <rect x="6" y="15" width="1" height="1" fill="#80705f" class="colorizable-skin"/>
      <rect x="7" y="15" width="1" height="1" fill="#80705f" class="colorizable-skin"/>

      <!-- HEAD_FRONT (8x8) at (8,8) - Cabeza frontal -->
      <rect x="8" y="8" width="1" height="1" fill="#2e2014" class="colorizable-skin"/>
      <rect x="9" y="8" width="1" height="1" fill="#261a11" class="colorizable-skin"/>
      <rect x="10" y="8" width="1" height="1" fill="#261a10" class="colorizable-skin"/>
      <rect x="11" y="8" width="1" height="1" fill="#3b2918" class="colorizable-skin"/>
      <rect x="12" y="8" width="1" height="1" fill="#2c2012" class="colorizable-skin"/>
      <rect x="13" y="8" width="1" height="1" fill="#231910" class="colorizable-skin"/>
      <rect x="14" y="8" width="1" height="1" fill="#3b2918" class="colorizable-skin"/>
      <rect x="15" y="8" width="1" height="1" fill="#2e2014" class="colorizable-skin"/>
      <rect x="8" y="9" width="1" height="1" fill="#6a5d50" class="colorizable-skin"/>
      <rect x="9" y="9" width="1" height="1" fill="#6a5d50" class="colorizable-skin"/>
      <rect x="10" y="9" width="1" height="1" fill="#80705f" class="colorizable-skin"/>
      <rect x="11" y="9" width="1" height="1" fill="#80705f" class="colorizable-skin"/>
      <rect x="12" y="9" width="1" height="1" fill="#80705f" class="colorizable-skin"/>
      <rect x="13" y="9" width="1" height="1" fill="#80705f" class="colorizable-skin"/>
      <rect x="14" y="9" width="1" height="1" fill="#6a5d50" class="colorizable-skin"/>
      <rect x="15" y="9" width="1" height="1" fill="#291910" class="colorizable-skin"/>
      <rect x="8" y="10" width="1" height="1" fill="#6a5d50" class="colorizable-skin"/>
      <rect x="9" y="10" width="1" height="1" fill="#092309" class="colorizable-skin"/>
      <rect x="10" y="10" width="1" height="1" fill="#092309" class="colorizable-skin"/>
      <rect x="11" y="10" width="1" height="1" fill="#80705f" class="colorizable-skin"/>
      <rect x="12" y="10" width="1" height="1" fill="#80705f" class="colorizable-skin"/>
      <rect x="13" y="10" width="1" height="1" fill="#092309" class="colorizable-skin"/>
      <rect x="14" y="10" width="1" height="1" fill="#092309" class="colorizable-skin"/>
      <rect x="15" y="10" width="1" height="1" fill="#6a5d50" class="colorizable-skin"/>
      <rect x="8" y="11" width="1" height="1" fill="#80705f" class="colorizable-skin"/>
      <rect x="9" y="11" width="1" height="1" fill="#ffffff" class="colorizable-skin"/>
      <rect x="10" y="11" width="1" height="1" fill="#114611" class="colorizable-skin"/>
      <rect x="11" y="11" width="1" height="1" fill="#80705f" class="colorizable-skin"/>
      <rect x="12" y="11" width="1" height="1" fill="#80705f" class="colorizable-skin"/>
      <rect x="13" y="11" width="1" height="1" fill="#114611" class="colorizable-skin"/>
      <rect x="14" y="11" width="1" height="1" fill="#ffffff" class="colorizable-skin"/>
      <rect x="15" y="11" width="1" height="1" fill="#80705f" class="colorizable-skin"/>
      <rect x="8" y="12" width="1" height="1" fill="#80705f" class="colorizable-skin"/>
      <rect x="9" y="12" width="1" height="1" fill="#ffffff" class="colorizable-skin"/>
      <rect x="10" y="12" width="1" height="1" fill="#114611" class="colorizable-skin"/>
      <rect x="11" y="12" width="1" height="1" fill="#80705f" class="colorizable-skin"/>
      <rect x="12" y="12" width="1" height="1" fill="#80705f" class="colorizable-skin"/>
      <rect x="13" y="12" width="1" height="1" fill="#114611" class="colorizable-skin"/>
      <rect x="14" y="12" width="1" height="1" fill="#ffffff" class="colorizable-skin"/>
      <rect x="15" y="12" width="1" height="1" fill="#80705f" class="colorizable-skin"/>
      <rect x="8" y="13" width="1" height="1" fill="#80705f" class="colorizable-skin"/>
      <rect x="9" y="13" width="1" height="1" fill="#80705f" class="colorizable-skin"/>
      <rect x="10" y="13" width="1" height="1" fill="#80705f" class="colorizable-skin"/>
      <rect x="11" y="13" width="1" height="1" fill="#80705f" class="colorizable-skin"/>
      <rect x="12" y="13" width="1" height="1" fill="#80705f" class="colorizable-skin"/>
      <rect x="13" y="13" width="1" height="1" fill="#80705f" class="colorizable-skin"/>
      <rect x="14" y="13" width="1" height="1" fill="#80705f" class="colorizable-skin"/>
      <rect x="15" y="13" width="1" height="1" fill="#80705f" class="colorizable-skin"/>
      <rect x="8" y="14" width="1" height="1" fill="#80705f" class="colorizable-skin"/>
      <rect x="9" y="14" width="1" height="1" fill="#80705f" class="colorizable-skin"/>
      <rect x="10" y="14" width="1" height="1" fill="#303030" class="colorizable-skin"/>
      <rect x="11" y="14" width="1" height="1" fill="#303030" class="colorizable-skin"/>
      <rect x="12" y="14" width="1" height="1" fill="#303030" class="colorizable-skin"/>
      <rect x="13" y="14" width="1" height="1" fill="#303030" class="colorizable-skin"/>
      <rect x="14" y="14" width="1" height="1" fill="#80705f" class="colorizable-skin"/>
      <rect x="15" y="14" width="1" height="1" fill="#80705f" class="colorizable-skin"/>
      <rect x="8" y="15" width="1" height="1" fill="#6a5d50" class="colorizable-skin"/>
      <rect x="9" y="15" width="1" height="1" fill="#80705f" class="colorizable-skin"/>
      <rect x="10" y="15" width="1" height="1" fill="#80705f" class="colorizable-skin"/>
      <rect x="11" y="15" width="1" height="1" fill="#80705f" class="colorizable-skin"/>
      <rect x="12" y="15" width="1" height="1" fill="#80705f" class="colorizable-skin"/>
      <rect x="13" y="15" width="1" height="1" fill="#80705f" class="colorizable-skin"/>
      <rect x="14" y="15" width="1" height="1" fill="#80705f" class="colorizable-skin"/>
      <rect x="15" y="15" width="1" height="1" fill="#6a5d50" class="colorizable-skin"/>

      <!-- HEAD_LEFT (8x8) at (16,8) - Cabeza izquierda -->
      <rect x="16" y="8" width="1" height="1" fill="#291b11" class="colorizable-skin"/>
      <rect x="17" y="8" width="1" height="1" fill="#291c12" class="colorizable-skin"/>
      <rect x="18" y="8" width="1" height="1" fill="#261b12" class="colorizable-skin"/>
      <rect x="19" y="8" width="1" height="1" fill="#312214" class="colorizable-skin"/>
      <rect x="20" y="8" width="1" height="1" fill="#281c11" class="colorizable-skin"/>
      <rect x="21" y="8" width="1" height="1" fill="#302215" class="colorizable-skin"/>
      <rect x="22" y="8" width="1" height="1" fill="#261c11" class="colorizable-skin"/>
      <rect x="23" y="8" width="1" height="1" fill="#25190e" class="colorizable-skin"/>
      <rect x="16" y="9" width="1" height="1" fill="#281d11" class="colorizable-skin"/>
      <rect x="17" y="9" width="1" height="1" fill="#261a0f" class="colorizable-skin"/>
      <rect x="18" y="9" width="1" height="1" fill="#312112" class="colorizable-skin"/>
      <rect x="19" y="9" width="1" height="1" fill="#2d1f13" class="colorizable-skin"/>
      <rect x="20" y="9" width="1" height="1" fill="#2e1f12" class="colorizable-skin"/>
      <rect x="21" y="9" width="1" height="1" fill="#352516" class="colorizable-skin"/>
      <rect x="22" y="9" width="1" height="1" fill="#24180e" class="colorizable-skin"/>
      <rect x="23" y="9" width="1" height="1" fill="#312014" class="colorizable-skin"/>
      <rect x="16" y="10" width="1" height="1" fill="#20170f" class="colorizable-skin"/>
      <rect x="17" y="10" width="1" height="1" fill="#2c1d10" class="colorizable-skin"/>
      <rect x="18" y="10" width="1" height="1" fill="#66564a" class="colorizable-skin"/>
      <rect x="19" y="10" width="1" height="1" fill="#66564a" class="colorizable-skin"/>
      <rect x="20" y="10" width="1" height="1" fill="#66564a" class="colorizable-skin"/>
      <rect x="21" y="10" width="1" height="1" fill="#66564a" class="colorizable-skin"/>
      <rect x="22" y="10" width="1" height="1" fill="#66564a" class="colorizable-skin"/>
      <rect x="23" y="10" width="1" height="1" fill="#66564a" class="colorizable-skin"/>
      <rect x="16" y="11" width="1" height="1" fill="#80705f" class="colorizable-skin"/>
      <rect x="17" y="11" width="1" height="1" fill="#80705f" class="colorizable-skin"/>
      <rect x="18" y="11" width="1" height="1" fill="#66564a" class="colorizable-skin"/>
      <rect x="19" y="11" width="1" height="1" fill="#66564a" class="colorizable-skin"/>
      <rect x="20" y="11" width="1" height="1" fill="#66564a" class="colorizable-skin"/>
      <rect x="21" y="11" width="1" height="1" fill="#66564a" class="colorizable-skin"/>
      <rect x="22" y="11" width="1" height="1" fill="#66564a" class="colorizable-skin"/>
      <rect x="23" y="11" width="1" height="1" fill="#66564a" class="colorizable-skin"/>
      <rect x="16" y="12" width="1" height="1" fill="#80705f" class="colorizable-skin"/>
      <rect x="17" y="12" width="1" height="1" fill="#80705f" class="colorizable-skin"/>
      <rect x="18" y="12" width="1" height="1" fill="#66564a" class="colorizable-skin"/>
      <rect x="19" y="12" width="1" height="1" fill="#66564a" class="colorizable-skin"/>
      <rect x="20" y="12" width="1" height="1" fill="#66564a" class="colorizable-skin"/>
      <rect x="21" y="12" width="1" height="1" fill="#66564a" class="colorizable-skin"/>
      <rect x="22" y="12" width="1" height="1" fill="#66564a" class="colorizable-skin"/>
      <rect x="23" y="12" width="1" height="1" fill="#66564a" class="colorizable-skin"/>
      <rect x="16" y="13" width="1" height="1" fill="#80705f" class="colorizable-skin"/>
      <rect x="17" y="13" width="1" height="1" fill="#80705f" class="colorizable-skin"/>
      <rect x="18" y="13" width="1" height="1" fill="#80705f" class="colorizable-skin"/>
      <rect x="19" y="13" width="1" height="1" fill="#80705f" class="colorizable-skin"/>
      <rect x="20" y="13" width="1" height="1" fill="#80705f" class="colorizable-skin"/>
      <rect x="21" y="13" width="1" height="1" fill="#80705f" class="colorizable-skin"/>
      <rect x="22" y="13" width="1" height="1" fill="#80705f" class="colorizable-skin"/>
      <rect x="23" y="13" width="1" height="1" fill="#66564a" class="colorizable-skin"/>
      <rect x="16" y="14" width="1" height="1" fill="#80705f" class="colorizable-skin"/>
      <rect x="17" y="14" width="1" height="1" fill="#80705f" class="colorizable-skin"/>
      <rect x="18" y="14" width="1" height="1" fill="#80705f" class="colorizable-skin"/>
      <rect x="19" y="14" width="1" height="1" fill="#80705f" class="colorizable-skin"/>
      <rect x="20" y="14" width="1" height="1" fill="#80705f" class="colorizable-skin"/>
      <rect x="21" y="14" width="1" height="1" fill="#80705f" class="colorizable-skin"/>
      <rect x="22" y="14" width="1" height="1" fill="#80705f" class="colorizable-skin"/>
      <rect x="23" y="14" width="1" height="1" fill="#80705f" class="colorizable-skin"/>
      <rect x="16" y="15" width="1" height="1" fill="#80705f" class="colorizable-skin"/>
      <rect x="17" y="15" width="1" height="1" fill="#80705f" class="colorizable-skin"/>
      <rect x="18" y="15" width="1" height="1" fill="#80705f" class="colorizable-skin"/>
      <rect x="19" y="15" width="1" height="1" fill="#80705f" class="colorizable-skin"/>
      <rect x="20" y="15" width="1" height="1" fill="#80705f" class="colorizable-skin"/>
      <rect x="21" y="15" width="1" height="1" fill="#80705f" class="colorizable-skin"/>
      <rect x="22" y="15" width="1" height="1" fill="#80705f" class="colorizable-skin"/>
      <rect x="23" y="15" width="1" height="1" fill="#80705f" class="colorizable-skin"/>

      <!-- HEAD_BACK (8x8) at (24,8) - Cabeza trasera -->
      <rect x="24" y="8" width="1" height="1" fill="#1f160d" class="colorizable-skin"/>
      <rect x="25" y="8" width="1" height="1" fill="#20150d" class="colorizable-skin"/>
      <rect x="26" y="8" width="1" height="1" fill="#261b0f" class="colorizable-skin"/>
      <rect x="27" y="8" width="1" height="1" fill="#2d1e14" class="colorizable-skin"/>
      <rect x="28" y="8" width="1" height="1" fill="#2a1c12" class="colorizable-skin"/>
      <rect x="29" y="8" width="1" height="1" fill="#291c11" class="colorizable-skin"/>
      <rect x="30" y="8" width="1" height="1" fill="#2d1e13" class="colorizable-skin"/>
      <rect x="31" y="8" width="1" height="1" fill="#21170e" class="colorizable-skin"/>
      <rect x="24" y="9" width="1" height="1" fill="#261a11" class="colorizable-skin"/>
      <rect x="25" y="9" width="1" height="1" fill="#2f1f13" class="colorizable-skin"/>
      <rect x="26" y="9" width="1" height="1" fill="#271b11" class="colorizable-skin"/>
      <rect x="27" y="9" width="1" height="1" fill="#2c1f12" class="colorizable-skin"/>
      <rect x="28" y="9" width="1" height="1" fill="#322215" class="colorizable-skin"/>
      <rect x="29" y="9" width="1" height="1" fill="#271c11" class="colorizable-skin"/>
      <rect x="30" y="9" width="1" height="1" fill="#22170f" class="colorizable-skin"/>
      <rect x="31" y="9" width="1" height="1" fill="#2f1e13" class="colorizable-skin"/>
      <rect x="24" y="10" width="1" height="1" fill="#66564a" class="colorizable-skin"/>
      <rect x="25" y="10" width="1" height="1" fill="#66564a" class="colorizable-skin"/>
      <rect x="26" y="10" width="1" height="1" fill="#66564a" class="colorizable-skin"/>
      <rect x="27" y="10" width="1" height="1" fill="#66564a" class="colorizable-skin"/>
      <rect x="28" y="10" width="1" height="1" fill="#66564a" class="colorizable-skin"/>
      <rect x="29" y="10" width="1" height="1" fill="#66564a" class="colorizable-skin"/>
      <rect x="30" y="10" width="1" height="1" fill="#66564a" class="colorizable-skin"/>
      <rect x="31" y="10" width="1" height="1" fill="#66564a" class="colorizable-skin"/>
      <rect x="24" y="11" width="1" height="1" fill="#66564a" class="colorizable-skin"/>
      <rect x="25" y="11" width="1" height="1" fill="#66564a" class="colorizable-skin"/>
      <rect x="26" y="11" width="1" height="1" fill="#66564a" class="colorizable-skin"/>
      <rect x="27" y="11" width="1" height="1" fill="#66564a" class="colorizable-skin"/>
      <rect x="28" y="11" width="1" height="1" fill="#66564a" class="colorizable-skin"/>
      <rect x="29" y="11" width="1" height="1" fill="#66564a" class="colorizable-skin"/>
      <rect x="30" y="11" width="1" height="1" fill="#66564a" class="colorizable-skin"/>
      <rect x="31" y="11" width="1" height="1" fill="#66564a" class="colorizable-skin"/>
      <rect x="24" y="12" width="1" height="1" fill="#66564a" class="colorizable-skin"/>
      <rect x="25" y="12" width="1" height="1" fill="#66564a" class="colorizable-skin"/>
      <rect x="26" y="12" width="1" height="1" fill="#66564a" class="colorizable-skin"/>
      <rect x="27" y="12" width="1" height="1" fill="#66564a" class="colorizable-skin"/>
      <rect x="28" y="12" width="1" height="1" fill="#66564a" class="colorizable-skin"/>
      <rect x="29" y="12" width="1" height="1" fill="#66564a" class="colorizable-skin"/>
      <rect x="30" y="12" width="1" height="1" fill="#66564a" class="colorizable-skin"/>
      <rect x="31" y="12" width="1" height="1" fill="#66564a" class="colorizable-skin"/>
      <rect x="24" y="13" width="1" height="1" fill="#66564a" class="colorizable-skin"/>
      <rect x="25" y="13" width="1" height="1" fill="#66564a" class="colorizable-skin"/>
      <rect x="26" y="13" width="1" height="1" fill="#66564a" class="colorizable-skin"/>
      <rect x="27" y="13" width="1" height="1" fill="#66564a" class="colorizable-skin"/>
      <rect x="28" y="13" width="1" height="1" fill="#66564a" class="colorizable-skin"/>
      <rect x="29" y="13" width="1" height="1" fill="#66564a" class="colorizable-skin"/>
      <rect x="30" y="13" width="1" height="1" fill="#66564a" class="colorizable-skin"/>
      <rect x="31" y="13" width="1" height="1" fill="#66564a" class="colorizable-skin"/>
      <rect x="24" y="14" width="1" height="1" fill="#66564a" class="colorizable-skin"/>
      <rect x="25" y="14" width="1" height="1" fill="#66564a" class="colorizable-skin"/>
      <rect x="26" y="14" width="1" height="1" fill="#66564a" class="colorizable-skin"/>
      <rect x="27" y="14" width="1" height="1" fill="#66564a" class="colorizable-skin"/>
      <rect x="28" y="14" width="1" height="1" fill="#66564a" class="colorizable-skin"/>
      <rect x="29" y="14" width="1" height="1" fill="#66564a" class="colorizable-skin"/>
      <rect x="30" y="14" width="1" height="1" fill="#66564a" class="colorizable-skin"/>
      <rect x="31" y="14" width="1" height="1" fill="#66564a" class="colorizable-skin"/>
      <rect x="24" y="15" width="1" height="1" fill="#80705f" class="colorizable-skin"/>
      <rect x="25" y="15" width="1" height="1" fill="#66564a" class="colorizable-skin"/>
      <rect x="26" y="15" width="1" height="1" fill="#66564a" class="colorizable-skin"/>
      <rect x="27" y="15" width="1" height="1" fill="#66564a" class="colorizable-skin"/>
      <rect x="28" y="15" width="1" height="1" fill="#66564a" class="colorizable-skin"/>
      <rect x="29" y="15" width="1" height="1" fill="#66564a" class="colorizable-skin"/>
      <rect x="30" y="15" width="1" height="1" fill="#66564a" class="colorizable-skin"/>
      <rect x="31" y="15" width="1" height="1" fill="#80705f" class="colorizable-skin"/>
    </svg>
  