
    <svg width="64" height="64" xmlns="http://www.w3.org/2000/svg">
      <!-- HEAD_TOP (8x8) at (8,0) - Cabeza superior con textura de pelo rapado -->
      <!-- Pelo rapado con textura irregular marrón/grisáceo mezclado con beige de piel -->
      <rect x="8" y="0" width="1" height="1" fill="#4a3f35" class="colorizable-hair"/>
      <rect x="9" y="0" width="1" height="1" fill="#5d5347" class="colorizable-hair"/>
      <rect x="10" y="0" width="1" height="1" fill="#4a3f35" class="colorizable-hair"/>
      <rect x="11" y="0" width="1" height="1" fill="#4a3f35" class="colorizable-hair"/>
      <rect x="12" y="0" width="1" height="1" fill="#5d5347" class="colorizable-hair"/>
      <rect x="13" y="0" width="1" height="1" fill="#4a3f35" class="colorizable-hair"/>
      <rect x="14" y="0" width="1" height="1" fill="#4a3f35" class="colorizable-hair"/>
      <rect x="15" y="0" width="1" height="1" fill="#5d5347" class="colorizable-hair"/>
      <rect x="8" y="1" width="1" height="1" fill="#5d5347" class="colorizable-hair"/>
      <rect x="9" y="1" width="1" height="1" fill="#4a3f35" class="colorizable-hair"/>
      <rect x="10" y="1" width="1" height="1" fill="#80705f" class="colorizable-skin"/>
      <rect x="11" y="1" width="1" height="1" fill="#5d5347" class="colorizable-hair"/>
      <rect x="12" y="1" width="1" height="1" fill="#4a3f35" class="colorizable-hair"/>
      <rect x="13" y="1" width="1" height="1" fill="#80705f" class="colorizable-skin"/>
      <rect x="14" y="1" width="1" height="1" fill="#5d5347" class="colorizable-hair"/>
      <rect x="15" y="1" width="1" height="1" fill="#4a3f35" class="colorizable-hair"/>
      <rect x="8" y="2" width="1" height="1" fill="#4a3f35" class="colorizable-hair"/>
      <rect x="9" y="2" width="1" height="1" fill="#80705f" class="colorizable-skin"/>
      <rect x="10" y="2" width="1" height="1" fill="#5d5347" class="colorizable-hair"/>
      <rect x="11" y="2" width="1" height="1" fill="#4a3f35" class="colorizable-hair"/>
      <rect x="12" y="2" width="1" height="1" fill="#5d5347" class="colorizable-hair"/>
      <rect x="13" y="2" width="1" height="1" fill="#4a3f35" class="colorizable-hair"/>
      <rect x="14" y="2" width="1" height="1" fill="#80705f" class="colorizable-skin"/>
      <rect x="15" y="2" width="1" height="1" fill="#5d5347" class="colorizable-hair"/>
      <rect x="8" y="3" width="1" height="1" fill="#5d5347" class="colorizable-hair"/>
      <rect x="9" y="3" width="1" height="1" fill="#4a3f35" class="colorizable-hair"/>
      <rect x="10" y="3" width="1" height="1" fill="#4a3f35" class="colorizable-hair"/>
      <rect x="11" y="3" width="1" height="1" fill="#80705f" class="colorizable-skin"/>
      <rect x="12" y="3" width="1" height="1" fill="#4a3f35" class="colorizable-hair"/>
      <rect x="13" y="3" width="1" height="1" fill="#5d5347" class="colorizable-hair"/>
      <rect x="14" y="3" width="1" height="1" fill="#4a3f35" class="colorizable-hair"/>
      <rect x="15" y="3" width="1" height="1" fill="#4a3f35" class="colorizable-hair"/>
      <rect x="8" y="4" width="1" height="1" fill="#4a3f35" class="colorizable-hair"/>
      <rect x="9" y="4" width="1" height="1" fill="#5d5347" class="colorizable-hair"/>
      <rect x="10" y="4" width="1" height="1" fill="#80705f" class="colorizable-skin"/>
      <rect x="11" y="4" width="1" height="1" fill="#5d5347" class="colorizable-hair"/>
      <rect x="12" y="4" width="1" height="1" fill="#5d5347" class="colorizable-hair"/>
      <rect x="13" y="4" width="1" height="1" fill="#80705f" class="colorizable-skin"/>
      <rect x="14" y="4" width="1" height="1" fill="#4a3f35" class="colorizable-hair"/>
      <rect x="15" y="4" width="1" height="1" fill="#5d5347" class="colorizable-hair"/>
      <rect x="8" y="5" width="1" height="1" fill="#5d5347" class="colorizable-hair"/>
      <rect x="9" y="5" width="1" height="1" fill="#4a3f35" class="colorizable-hair"/>
      <rect x="10" y="5" width="1" height="1" fill="#5d5347" class="colorizable-hair"/>
      <rect x="11" y="5" width="1" height="1" fill="#4a3f35" class="colorizable-hair"/>
      <rect x="12" y="5" width="1" height="1" fill="#4a3f35" class="colorizable-hair"/>
      <rect x="13" y="5" width="1" height="1" fill="#5d5347" class="colorizable-hair"/>
      <rect x="14" y="5" width="1" height="1" fill="#5d5347" class="colorizable-hair"/>
      <rect x="15" y="5" width="1" height="1" fill="#4a3f35" class="colorizable-hair"/>
      <rect x="8" y="6" width="1" height="1" fill="#4a3f35" class="colorizable-hair"/>
      <rect x="9" y="6" width="1" height="1" fill="#80705f" class="colorizable-skin"/>
      <rect x="10" y="6" width="1" height="1" fill="#4a3f35" class="colorizable-hair"/>
      <rect x="11" y="6" width="1" height="1" fill="#5d5347" class="colorizable-hair"/>
      <rect x="12" y="6" width="1" height="1" fill="#5d5347" class="colorizable-hair"/>
      <rect x="13" y="6" width="1" height="1" fill="#4a3f35" class="colorizable-hair"/>
      <rect x="14" y="6" width="1" height="1" fill="#80705f" class="colorizable-skin"/>
      <rect x="15" y="6" width="1" height="1" fill="#5d5347" class="colorizable-hair"/>
      <rect x="8" y="7" width="1" height="1" fill="#5d5347" class="colorizable-hair"/>
      <rect x="9" y="7" width="1" height="1" fill="#5d5347" class="colorizable-hair"/>
      <rect x="10" y="7" width="1" height="1" fill="#5d5347" class="colorizable-hair"/>
      <rect x="11" y="7" width="1" height="1" fill="#4a3f35" class="colorizable-hair"/>
      <rect x="12" y="7" width="1" height="1" fill="#4a3f35" class="colorizable-hair"/>
      <rect x="13" y="7" width="1" height="1" fill="#5d5347" class="colorizable-hair"/>
      <rect x="14" y="7" width="1" height="1" fill="#5d5347" class="colorizable-hair"/>
      <rect x="15" y="7" width="1" height="1" fill="#4a3f35" class="colorizable-hair"/>

      <!-- HEAD_BOTTOM (8x8) at (16,0) - Cabeza inferior -->
      <rect x="16" y="0" width="8" height="1" fill="#706253" class="colorizable-skin"/>
      <rect x="16" y="1" width="8" height="1" fill="#706253" class="colorizable-skin"/>
      <rect x="16" y="2" width="8" height="1" fill="#706253" class="colorizable-skin"/>
      <rect x="16" y="3" width="8" height="1" fill="#706253" class="colorizable-skin"/>
      <rect x="16" y="4" width="8" height="1" fill="#706253" class="colorizable-skin"/>
      <rect x="16" y="5" width="8" height="1" fill="#706253" class="colorizable-skin"/>
      <rect x="16" y="6" width="8" height="1" fill="#706253" class="colorizable-skin"/>
      <rect x="16" y="7" width="8" height="1" fill="#706253" class="colorizable-skin"/>

      <!-- HEAD_RIGHT (8x8) at (0,8) - Cabeza derecha con línea de pelo arriba -->
      <rect x="0" y="8" width="8" height="1" fill="#4a3f35" class="colorizable-hair"/>
      <rect x="0" y="9" width="8" height="1" fill="#4a3f35" class="colorizable-hair"/>
      <rect x="0" y="10" width="8" height="1" fill="#706253" class="colorizable-skin"/>
      <rect x="0" y="11" width="8" height="1" fill="#706253" class="colorizable-skin"/>
      <rect x="0" y="12" width="8" height="1" fill="#706253" class="colorizable-skin"/>
      <rect x="0" y="13" width="8" height="1" fill="#706253" class="colorizable-skin"/>
      <rect x="0" y="14" width="8" height="1" fill="#706253" class="colorizable-skin"/>
      <rect x="0" y="15" width="8" height="1" fill="#706253" class="colorizable-skin"/>

      <!-- HEAD_FRONT (8x8) at (8,8) - Cabeza frontal con línea de pelo arriba -->
      <rect x="8" y="8" width="8" height="1" fill="#4a3f35" class="colorizable-hair"/>
      <rect x="8" y="9" width="2" height="1" fill="#6a5d50" class="colorizable-skin"/>
      <rect x="10" y="9" width="4" height="1" fill="#80705f" class="colorizable-skin"/>
      <rect x="14" y="9" width="2" height="1" fill="#6a5d50" class="colorizable-skin"/>
      <rect x="8" y="10" width="1" height="1" fill="#6a5d50" class="colorizable-skin"/>
      <rect x="9" y="10" width="6" height="1" fill="#80705f" class="colorizable-skin"/>
      <rect x="15" y="10" width="1" height="1" fill="#6a5d50" class="colorizable-skin"/>
      <rect x="8" y="11" width="8" height="1" fill="#80705f" class="colorizable-skin"/>
      <rect x="8" y="12" width="8" height="1" fill="#80705f" class="colorizable-skin"/>
      <rect x="8" y="13" width="8" height="1" fill="#80705f" class="colorizable-skin"/>
      <rect x="8" y="14" width="2" height="1" fill="#80705f" class="colorizable-skin"/>
      <rect x="10" y="14" width="4" height="1" fill="#303030"/>
      <rect x="14" y="14" width="2" height="1" fill="#80705f" class="colorizable-skin"/>
      <rect x="8" y="15" width="1" height="1" fill="#6a5d50" class="colorizable-skin"/>
      <rect x="9" y="15" width="6" height="1" fill="#80705f" class="colorizable-skin"/>
      <rect x="15" y="15" width="1" height="1" fill="#6a5d50" class="colorizable-skin"/>

      <!-- HEAD_LEFT (8x8) at (16,8) - Cabeza izquierda con línea de pelo arriba -->
      <rect x="16" y="8" width="8" height="1" fill="#4a3f35" class="colorizable-hair"/>
      <rect x="16" y="9" width="8" height="1" fill="#4a3f35" class="colorizable-hair"/>
      <rect x="16" y="10" width="8" height="1" fill="#706253" class="colorizable-skin"/>
      <rect x="16" y="11" width="8" height="1" fill="#706253" class="colorizable-skin"/>
      <rect x="16" y="12" width="8" height="1" fill="#706253" class="colorizable-skin"/>
      <rect x="16" y="13" width="8" height="1" fill="#706253" class="colorizable-skin"/>
      <rect x="16" y="14" width="8" height="1" fill="#706253" class="colorizable-skin"/>
      <rect x="16" y="15" width="8" height="1" fill="#706253" class="colorizable-skin"/>

      <!-- HEAD_BACK (8x8) at (24,8) - Cabeza trasera con línea de pelo arriba -->
      <rect x="24" y="8" width="8" height="1" fill="#4a3f35" class="colorizable-hair"/>
      <rect x="24" y="9" width="8" height="1" fill="#4a3f35" class="colorizable-hair"/>
      <rect x="24" y="10" width="8" height="1" fill="#706253" class="colorizable-skin"/>
      <rect x="24" y="11" width="8" height="1" fill="#706253" class="colorizable-skin"/>
      <rect x="24" y="12" width="8" height="1" fill="#706253" class="colorizable-skin"/>
      <rect x="24" y="13" width="8" height="1" fill="#706253" class="colorizable-skin"/>
      <rect x="24" y="14" width="8" height="1" fill="#706253" class="colorizable-skin"/>
      <rect x="24" y="15" width="8" height="1" fill="#706253" class="colorizable-skin"/>
    </svg>
  