
    <svg width="64" height="64" xmlns="http://www.w3.org/2000/svg">
      <!-- BODY (TORSO) -->
      <!-- BODY_RIGHT (4x12) at (16,20) -->
      <rect x="16" y="20" width="4" height="12" fill="#805b61"/>

      <!-- BODY_FRONT (8x12) at (20,20) -->
      <rect x="20" y="20" width="8" height="12" fill="#805b61"/>

      <!-- BODY_LEFT (4x12) at (28,20) -->
      <rect x="28" y="20" width="4" height="12" fill="#805b61"/>

      <!-- BODY_BACK (8x12) at (32,20) -->
      <rect x="32" y="20" width="8" height="12" fill="#805b61"/>

      <!-- BRAZO DERECHO -->
      <!-- ARM_R_TOP (4x4) at (44,16) - Hombro con mechones -->
      <rect x="44" y="16" width="1" height="1" fill="#805b61"/>
      <rect x="45" y="16" width="3" height="1" fill="#783636"/>
      <rect x="44" y="17" width="1" height="1" fill="#805b61"/>
      <rect x="45" y="17" width="3" height="1" fill="#783636"/>
      <rect x="44" y="18" width="2" height="1" fill="#805b61"/>
      <rect x="46" y="18" width="2" height="1" fill="#783636"/>
      <rect x="44" y="19" width="2" height="1" fill="#805b61"/>
      <rect x="46" y="19" width="2" height="1" fill="#783636"/>

      <!-- ARM_R_BOTTOM (4x4) at (48,16) -->
      <rect x="48" y="16" width="4" height="4" fill="#706253" class="colorizable-skin"/>

      <!-- BRAZO DERECHO -->
      <!-- ARM_R_FRONT (4x12) at (44,20) -->
      <rect x="44" y="20" width="4" height="1" fill="#805b61"/>
      <rect x="44" y="21" width="4" height="1" fill="#805b61"/>
      <rect x="44" y="22" width="4" height="1" fill="#805b61"/>
      <rect x="44" y="23" width="4" height="1" fill="#805b61"/>
      <rect x="44" y="24" width="4" height="1" fill="#805b61"/>
      <rect x="44" y="25" width="4" height="1" fill="#604549"/>
      <rect x="44" y="26" width="1" height="1" fill="#907e6b" class="colorizable-skin"/>
      <rect x="45" y="26" width="1" height="1" fill="#8d7c69" class="colorizable-skin"/>
      <rect x="46" y="26" width="2" height="1" fill="#907e6b" class="colorizable-skin"/>
      <rect x="44" y="27" width="1" height="1" fill="#907e6b" class="colorizable-skin"/>
      <rect x="45" y="27" width="1" height="1" fill="#8d7c69" class="colorizable-skin"/>
      <rect x="46" y="27" width="2" height="1" fill="#907e6b" class="colorizable-skin"/>
      <rect x="44" y="28" width="1" height="1" fill="#907e6b" class="colorizable-skin"/>
      <rect x="45" y="28" width="1" height="1" fill="#8d7c69" class="colorizable-skin"/>
      <rect x="46" y="28" width="2" height="1" fill="#907e6b" class="colorizable-skin"/>
      <rect x="44" y="29" width="1" height="1" fill="#907e6b" class="colorizable-skin"/>
      <rect x="45" y="29" width="1" height="1" fill="#8d7c69" class="colorizable-skin"/>
      <rect x="46" y="29" width="2" height="1" fill="#907e6b" class="colorizable-skin"/>
      <rect x="44" y="30" width="1" height="1" fill="#907e6b" class="colorizable-skin"/>
      <rect x="45" y="30" width="1" height="1" fill="#8d7c69" class="colorizable-skin"/>
      <rect x="46" y="30" width="2" height="1" fill="#907e6b" class="colorizable-skin"/>
      <rect x="44" y="31" width="1" height="1" fill="#907e6b" class="colorizable-skin"/>
      <rect x="45" y="31" width="1" height="1" fill="#8d7c69" class="colorizable-skin"/>
      <rect x="46" y="31" width="2" height="1" fill="#907e6b" class="colorizable-skin"/>

      <!-- ARM_R_BACK (4x12) at (52,20) -->
      <rect x="52" y="20" width="2" height="1" fill="#783636"/>
      <rect x="54" y="20" width="2" height="1" fill="#604549"/>
      <rect x="52" y="21" width="1" height="1" fill="#783636"/>
      <rect x="53" y="21" width="3" height="1" fill="#604549"/>
      <rect x="52" y="22" width="4" height="1" fill="#604549"/>
      <rect x="52" y="23" width="4" height="1" fill="#604549"/>
      <rect x="52" y="24" width="4" height="1" fill="#604549"/>
      <rect x="52" y="25" width="4" height="1" fill="#553e41"/>
      <rect x="52" y="26" width="4" height="1" fill="#706253" class="colorizable-skin"/>
      <rect x="52" y="27" width="4" height="1" fill="#706253" class="colorizable-skin"/>
      <rect x="52" y="28" width="4" height="1" fill="#706253" class="colorizable-skin"/>
      <rect x="52" y="29" width="4" height="1" fill="#706253" class="colorizable-skin"/>
      <rect x="52" y="30" width="4" height="1" fill="#706253" class="colorizable-skin"/>
      <rect x="52" y="31" width="4" height="1" fill="#706253" class="colorizable-skin"/>

      <!-- ARM_R_RIGHT (4x12) at (40,20) -->
      <rect x="40" y="20" width="4" height="1" fill="#705055"/>
      <rect x="40" y="21" width="4" height="1" fill="#705055"/>
      <rect x="40" y="22" width="4" height="1" fill="#705055"/>
      <rect x="40" y="23" width="4" height="1" fill="#705055"/>
      <rect x="40" y="24" width="4" height="1" fill="#705055"/>
      <rect x="40" y="25" width="4" height="1" fill="#604549"/>
      <rect x="40" y="26" width="1" height="1" fill="#7a6b5a"/>
      <rect x="41" y="26" width="3" height="1" fill="#80705f" class="colorizable-skin"/>
      <rect x="40" y="27" width="1" height="1" fill="#7a6b5a"/>
      <rect x="41" y="27" width="3" height="1" fill="#80705f" class="colorizable-skin"/>
      <rect x="40" y="28" width="1" height="1" fill="#7a6b5a"/>
      <rect x="41" y="28" width="3" height="1" fill="#80705f" class="colorizable-skin"/>
      <rect x="40" y="29" width="1" height="1" fill="#7a6b5a"/>
      <rect x="41" y="29" width="3" height="1" fill="#80705f" class="colorizable-skin"/>
      <rect x="40" y="30" width="1" height="1" fill="#7a6b5a"/>
      <rect x="41" y="30" width="3" height="1" fill="#80705f" class="colorizable-skin"/>
      <rect x="40" y="31" width="1" height="1" fill="#7a6b5a"/>
      <rect x="41" y="31" width="3" height="1" fill="#80705f" class="colorizable-skin"/>

      <!-- ARM_R_LEFT (4x12) at (48,20) -->
      <rect x="48" y="20" width="4" height="1" fill="#705055"/>
      <rect x="48" y="21" width="4" height="1" fill="#705055"/>
      <rect x="48" y="22" width="4" height="1" fill="#705055"/>
      <rect x="48" y="23" width="4" height="1" fill="#705055"/>
      <rect x="48" y="24" width="4" height="1" fill="#705055"/>
      <rect x="48" y="25" width="4" height="1" fill="#705055"/>
      <rect x="48" y="26" width="3" height="1" fill="#80705f" class="colorizable-skin"/>
      <rect x="51" y="26" width="1" height="1" fill="#7a6b5a"/>
      <rect x="48" y="27" width="3" height="1" fill="#80705f" class="colorizable-skin"/>
      <rect x="51" y="27" width="1" height="1" fill="#7a6b5a"/>
      <rect x="48" y="28" width="3" height="1" fill="#80705f" class="colorizable-skin"/>
      <rect x="51" y="28" width="1" height="1" fill="#7a6b5a"/>
      <rect x="48" y="29" width="3" height="1" fill="#80705f" class="colorizable-skin"/>
      <rect x="51" y="29" width="1" height="1" fill="#7a6b5a"/>
      <rect x="48" y="30" width="3" height="1" fill="#80705f" class="colorizable-skin"/>
      <rect x="51" y="30" width="1" height="1" fill="#7a6b5a"/>
      <rect x="48" y="31" width="3" height="1" fill="#80705f" class="colorizable-skin"/>
      <rect x="51" y="31" width="1" height="1" fill="#7a6b5a"/>

      <!-- BRAZO IZQUIERDO -->
      <!-- ARM_L_TOP (4x4) at (36,48) - Hombro con mechones -->
      <rect x="36" y="48" width="2" height="1" fill="#783636"/>
      <rect x="38" y="48" width="2" height="1" fill="#805b61"/>
      <rect x="36" y="49" width="1" height="1" fill="#783636"/>
      <rect x="37" y="49" width="3" height="1" fill="#805b61"/>
      <rect x="36" y="50" width="1" height="1" fill="#783636"/>
      <rect x="37" y="50" width="3" height="1" fill="#805b61"/>
      <rect x="36" y="51" width="1" height="1" fill="#783636"/>
      <rect x="37" y="51" width="3" height="1" fill="#805b61"/>

      <!-- ARM_L_BOTTOM (4x4) at (40,48) -->
      <rect x="40" y="48" width="4" height="4" fill="#706253" class="colorizable-skin"/>

      <!-- ARM_L_FRONT (4x12) at (36,52) -->
      <rect x="36" y="52" width="4" height="1" fill="#805b61"/>
      <rect x="36" y="53" width="4" height="1" fill="#805b61"/>
      <rect x="36" y="54" width="4" height="1" fill="#805b61"/>
      <rect x="36" y="55" width="4" height="1" fill="#805b61"/>
      <rect x="36" y="56" width="4" height="1" fill="#805b61"/>
      <rect x="36" y="57" width="4" height="1" fill="#604549"/>
      <rect x="36" y="58" width="1" height="1" fill="#907e6b" class="colorizable-skin"/>
      <rect x="37" y="58" width="1" height="1" fill="#8d7c69" class="colorizable-skin"/>
      <rect x="38" y="58" width="2" height="1" fill="#907e6b" class="colorizable-skin"/>
      <rect x="36" y="59" width="1" height="1" fill="#907e6b" class="colorizable-skin"/>
      <rect x="37" y="59" width="1" height="1" fill="#8d7c69" class="colorizable-skin"/>
      <rect x="38" y="59" width="2" height="1" fill="#907e6b" class="colorizable-skin"/>
      <rect x="36" y="60" width="1" height="1" fill="#907e6b" class="colorizable-skin"/>
      <rect x="37" y="60" width="1" height="1" fill="#8d7c69" class="colorizable-skin"/>
      <rect x="38" y="60" width="2" height="1" fill="#907e6b" class="colorizable-skin"/>
      <rect x="36" y="61" width="1" height="1" fill="#907e6b" class="colorizable-skin"/>
      <rect x="37" y="61" width="1" height="1" fill="#8d7c69" class="colorizable-skin"/>
      <rect x="38" y="61" width="2" height="1" fill="#907e6b" class="colorizable-skin"/>
      <rect x="36" y="62" width="1" height="1" fill="#907e6b" class="colorizable-skin"/>
      <rect x="37" y="62" width="1" height="1" fill="#8d7c69" class="colorizable-skin"/>
      <rect x="38" y="62" width="2" height="1" fill="#907e6b" class="colorizable-skin"/>
      <rect x="36" y="63" width="1" height="1" fill="#907e6b" class="colorizable-skin"/>
      <rect x="37" y="63" width="1" height="1" fill="#8d7c69" class="colorizable-skin"/>
      <rect x="38" y="63" width="2" height="1" fill="#907e6b" class="colorizable-skin"/>

      <!-- ARM_L_BACK (4x12) at (44,52) -->
      <rect x="44" y="52" width="2" height="1" fill="#604549"/>
      <rect x="46" y="52" width="2" height="1" fill="#783636"/>
      <rect x="44" y="53" width="3" height="1" fill="#604549"/>
      <rect x="47" y="53" width="1" height="1" fill="#783636"/>
      <rect x="44" y="54" width="3" height="1" fill="#604549"/>
      <rect x="47" y="54" width="1" height="1" fill="#783636"/>
      <rect x="44" y="55" width="4" height="1" fill="#604549"/>
      <rect x="44" y="56" width="4" height="1" fill="#604549"/>
      <rect x="44" y="57" width="4" height="1" fill="#553e41"/>
      <rect x="44" y="58" width="4" height="1" fill="#706253" class="colorizable-skin"/>
      <rect x="44" y="59" width="4" height="1" fill="#706253" class="colorizable-skin"/>
      <rect x="44" y="60" width="4" height="1" fill="#706253" class="colorizable-skin"/>
      <rect x="44" y="61" width="4" height="1" fill="#706253" class="colorizable-skin"/>
      <rect x="44" y="62" width="4" height="1" fill="#706253" class="colorizable-skin"/>
      <rect x="44" y="63" width="4" height="1" fill="#706253" class="colorizable-skin"/>

      <!-- ARM_L_RIGHT (4x12) at (32,52) -->
      <rect x="32" y="52" width="4" height="1" fill="#705055"/>
      <rect x="32" y="53" width="4" height="1" fill="#705055"/>
      <rect x="32" y="54" width="4" height="1" fill="#705055"/>
      <rect x="32" y="55" width="4" height="1" fill="#705055"/>
      <rect x="32" y="56" width="4" height="1" fill="#705055"/>
      <rect x="32" y="57" width="4" height="1" fill="#705055"/>
      <rect x="32" y="58" width="1" height="1" fill="#7a6b5a"/>
      <rect x="33" y="58" width="3" height="1" fill="#80705f" class="colorizable-skin"/>
      <rect x="32" y="59" width="1" height="1" fill="#7a6b5a"/>
      <rect x="33" y="59" width="3" height="1" fill="#80705f" class="colorizable-skin"/>
      <rect x="32" y="60" width="1" height="1" fill="#7a6b5a"/>
      <rect x="33" y="60" width="3" height="1" fill="#80705f" class="colorizable-skin"/>
      <rect x="32" y="61" width="1" height="1" fill="#7a6b5a"/>
      <rect x="33" y="61" width="3" height="1" fill="#80705f" class="colorizable-skin"/>
      <rect x="32" y="62" width="1" height="1" fill="#7a6b5a"/>
      <rect x="33" y="62" width="3" height="1" fill="#80705f" class="colorizable-skin"/>
      <rect x="32" y="63" width="1" height="1" fill="#7a6b5a"/>
      <rect x="33" y="63" width="3" height="1" fill="#80705f" class="colorizable-skin"/>

      <!-- ARM_L_LEFT (4x12) at (40,52) -->
      <rect x="40" y="52" width="4" height="1" fill="#705055"/>
      <rect x="40" y="53" width="4" height="1" fill="#705055"/>
      <rect x="40" y="54" width="4" height="1" fill="#705055"/>
      <rect x="40" y="55" width="4" height="1" fill="#705055"/>
      <rect x="40" y="56" width="4" height="1" fill="#705055"/>
      <rect x="40" y="57" width="4" height="1" fill="#604549"/>
      <rect x="40" y="58" width="3" height="1" fill="#80705f" class="colorizable-skin"/>
      <rect x="43" y="58" width="1" height="1" fill="#7a6b5a"/>
      <rect x="40" y="59" width="3" height="1" fill="#80705f" class="colorizable-skin"/>
      <rect x="43" y="59" width="1" height="1" fill="#7a6b5a"/>
      <rect x="40" y="60" width="3" height="1" fill="#80705f" class="colorizable-skin"/>
      <rect x="43" y="60" width="1" height="1" fill="#7a6b5a"/>
      <rect x="40" y="61" width="3" height="1" fill="#80705f" class="colorizable-skin"/>
      <rect x="43" y="61" width="1" height="1" fill="#7a6b5a"/>
      <rect x="40" y="62" width="3" height="1" fill="#80705f" class="colorizable-skin"/>
      <rect x="43" y="62" width="1" height="1" fill="#7a6b5a"/>
      <rect x="40" y="63" width="3" height="1" fill="#80705f" class="colorizable-skin"/>
      <rect x="43" y="63" width="1" height="1" fill="#7a6b5a"/>
    </svg>
  