
    <svg width="64" height="64" xmlns="http://www.w3.org/2000/svg">
      <!-- HAT_TOP (40,0) 8x8 - Moño visible desde arriba con textura irregular -->
      <rect x="41" y="1" width="6" height="5" fill="#808080" class="colorizable-hair"/>
      <!-- Textura desprolija -->
      <rect x="40" y="2" width="2" height="2" fill="#707070" class="colorizable-hair"/>
      <rect x="46" y="2" width="2" height="2" fill="#707070" class="colorizable-hair"/>
      <rect x="42" y="1" width="1" height="1" fill="#909090" class="colorizable-hair"/>
      <rect x="45" y="1" width="1" height="1" fill="#909090" class="colorizable-hair"/>
      <!-- Mechones sueltos -->
      <rect x="40" y="5" width="1" height="2" fill="#606060" class="colorizable-hair" opacity="0.7"/>
      <rect x="47" y="5" width="1" height="2" fill="#606060" class="colorizable-hair" opacity="0.7"/>

      <!-- HAT_RIGHT (32,8) 8x8 - Moño visible desde el lado -->
      <rect x="32" y="8" width="8" height="2" fill="#808080" class="colorizable-hair"/>
      <!-- Volumen del moño -->
      <rect x="35" y="8" width="3" height="3" fill="#707070" class="colorizable-hair"/>
      <rect x="36" y="9" width="2" height="2" fill="#909090" class="colorizable-hair" opacity="0.5"/>
      <!-- Mechones escapando -->
      <rect x="34" y="11" width="2" height="2" fill="#606060" class="colorizable-hair"/>

      <!-- HAT_FRONT (40,8) 8x8 - Frente con mechones sueltos -->
      <rect x="40" y="8" width="8" height="2" fill="#808080" class="colorizable-hair"/>
      <!-- Mechones desprolijos -->
      <rect x="40" y="10" width="2" height="2" fill="#707070" class="colorizable-hair"/>
      <rect x="46" y="10" width="2" height="2" fill="#707070" class="colorizable-hair"/>
      <rect x="41" y="12" width="1" height="1" fill="#606060" class="colorizable-hair"/>
      <rect x="46" y="12" width="1" height="1" fill="#606060" class="colorizable-hair"/>

      <!-- HAT_LEFT (48,8) 8x8 - Moño visible desde el lado (simétrico) -->
      <rect x="48" y="8" width="8" height="2" fill="#808080" class="colorizable-hair"/>
      <rect x="50" y="8" width="3" height="3" fill="#707070" class="colorizable-hair"/>
      <rect x="50" y="9" width="2" height="2" fill="#909090" class="colorizable-hair" opacity="0.5"/>
      <rect x="52" y="11" width="2" height="2" fill="#606060" class="colorizable-hair"/>

      <!-- HAT_BACK (56,8) 8x8 - Moño visible desde atrás -->
      <rect x="56" y="8" width="8" height="3" fill="#808080" class="colorizable-hair"/>
      <!-- Volumen del moño -->
      <rect x="58" y="8" width="4" height="3" fill="#707070" class="colorizable-hair"/>
      <rect x="59" y="9" width="2" height="2" fill="#909090" class="colorizable-hair" opacity="0.6"/>
      <!-- Mechones sueltos -->
      <rect x="57" y="11" width="1" height="2" fill="#606060" class="colorizable-hair"/>
      <rect x="62" y="11" width="1" height="2" fill="#606060" class="colorizable-hair"/>
    </svg>
  