
    <svg width="64" height="64" xmlns="http://www.w3.org/2000/svg">
      <!-- HAT_TOP (8x8) at (40,0) - Vista superior con mucho volumen -->
      <rect x="40" y="0" width="8" height="8" fill="#808080" class="colorizable-hair"/>
      <rect x="40" y="0" width="8" height="2" fill="#909090" class="colorizable-hair"/>
      <!-- Textura despeinada -->
      <rect x="41" y="2" width="2" height="1" fill="#909090" class="colorizable-hair"/>
      <rect x="45" y="2" width="2" height="1" fill="#909090" class="colorizable-hair"/>
      <rect x="42" y="4" width="4" height="1" fill="#707070" class="colorizable-hair" opacity="0.3"/>

      <!-- HAT_BOTTOM (8x8) at (48,0) - Vista inferior (vacío) -->

      <!-- HAT_RIGHT (8x8) at (32,8) - Lado derecho con capas -->
      <!-- Base superior con volumen -->
      <rect x="32" y="8" width="8" height="2" fill="#909090" class="colorizable-hair"/>
      <!-- Capas medias -->
      <rect x="32" y="10" width="7" height="1" fill="#808080" class="colorizable-hair"/>
      <rect x="32" y="11" width="6" height="1" fill="#808080" class="colorizable-hair"/>
      <!-- Mechones irregulares (feathered) -->
      <rect x="32" y="12" width="5" height="1" fill="#707070" class="colorizable-hair"/>
      <rect x="32" y="13" width="3" height="1" fill="#707070" class="colorizable-hair"/>
      <rect x="33" y="14" width="2" height="1" fill="#606060" class="colorizable-hair"/>
      <!-- Puntas separadas -->
      <rect x="32" y="14" width="1" height="1" fill="#606060" class="colorizable-hair"/>

      <!-- HAT_FRONT (8x8) at (40,8) - Frente con flequillo despeinado -->
      <rect x="40" y="8" width="8" height="2" fill="#909090" class="colorizable-hair"/>
      <!-- Mechones irregulares -->
      <rect x="41" y="10" width="2" height="2" fill="#808080" class="colorizable-hair"/>
      <rect x="45" y="10" width="2" height="2" fill="#808080" class="colorizable-hair"/>
      <rect x="42" y="12" width="1" height="1" fill="#707070" class="colorizable-hair"/>
      <rect x="45" y="12" width="1" height="1" fill="#707070" class="colorizable-hair"/>

      <!-- HAT_LEFT (8x8) at (48,8) - Lado izquierdo con capas -->
      <!-- Base superior con volumen -->
      <rect x="48" y="8" width="8" height="2" fill="#909090" class="colorizable-hair"/>
      <!-- Capas medias -->
      <rect x="49" y="10" width="7" height="1" fill="#808080" class="colorizable-hair"/>
      <rect x="50" y="11" width="6" height="1" fill="#808080" class="colorizable-hair"/>
      <!-- Mechones irregulares -->
      <rect x="51" y="12" width="5" height="1" fill="#707070" class="colorizable-hair"/>
      <rect x="53" y="13" width="3" height="1" fill="#707070" class="colorizable-hair"/>
      <rect x="53" y="14" width="2" height="1" fill="#606060" class="colorizable-hair"/>
      <!-- Puntas separadas -->
      <rect x="55" y="14" width="1" height="1" fill="#606060" class="colorizable-hair"/>

      <!-- HAT_BACK (8x8) at (56,8) - Parte trasera con capas -->
      <rect x="56" y="8" width="8" height="3" fill="#909090" class="colorizable-hair"/>
      <rect x="56" y="11" width="8" height="2" fill="#808080" class="colorizable-hair"/>
      <!-- Capas visibles -->
      <rect x="57" y="13" width="3" height="1" fill="#707070" class="colorizable-hair"/>
      <rect x="60" y="13" width="3" height="1" fill="#707070" class="colorizable-hair"/>
      <rect x="58" y="14" width="2" height="1" fill="#606060" class="colorizable-hair"/>
    </svg>
  