
    <svg width="64" height="64" xmlns="http://www.w3.org/2000/svg">
      <!-- HAT_TOP (8x8) at (40,0) - Vista superior con raya al medio -->
      <rect x="40" y="0" width="8" height="8" fill="#808080" class="colorizable-hair"/>
      <!-- Raya central -->
      <rect x="43" y="0" width="2" height="8" fill="#707070" class="colorizable-hair"/>
      <!-- Volumen lateral -->
      <rect x="40" y="1" width="3" height="6" fill="#909090" class="colorizable-hair"/>
      <rect x="45" y="1" width="3" height="6" fill="#909090" class="colorizable-hair"/>

      <!-- HAT_BOTTOM (8x8) at (48,0) - Vista inferior (vacío, pelo cae) -->

      <!-- HAT_RIGHT (8x8) at (32,8) - Lado derecho con caída recta -->
      <rect x="32" y="8" width="8" height="8" fill="#808080" class="colorizable-hair"/>
      <!-- Sombra lateral -->
      <rect x="32" y="8" width="2" height="8" fill="#707070" class="colorizable-hair"/>
      <!-- Mechas de caída -->
      <rect x="34" y="10" width="4" height="5" fill="#909090" class="colorizable-hair"/>
      <rect x="35" y="14" width="3" height="1" fill="#707070" class="colorizable-hair"/>

      <!-- HAT_FRONT (8x8) at (40,8) - Frente con pelo liso hacia atrás -->
      <rect x="40" y="8" width="8" height="4" fill="#808080" class="colorizable-hair"/>
      <!-- Línea central suave -->
      <rect x="43" y="8" width="2" height="4" fill="#707070" class="colorizable-hair"/>
      <!-- Sombra inferior -->
      <rect x="41" y="11" width="6" height="1" fill="#707070" class="colorizable-hair"/>

      <!-- HAT_LEFT (8x8) at (48,8) - Lado izquierdo con caída recta -->
      <rect x="48" y="8" width="8" height="8" fill="#808080" class="colorizable-hair"/>
      <!-- Sombra lateral -->
      <rect x="54" y="8" width="2" height="8" fill="#707070" class="colorizable-hair"/>
      <!-- Mechas de caída -->
      <rect x="50" y="10" width="4" height="5" fill="#909090" class="colorizable-hair"/>
      <rect x="50" y="14" width="3" height="1" fill="#707070" class="colorizable-hair"/>

      <!-- HAT_BACK (8x8) at (56,8) - Parte trasera con volumen -->
      <rect x="56" y="8" width="8" height="8" fill="#808080" class="colorizable-hair"/>
      <!-- Volumen central -->
      <rect x="58" y="8" width="4" height="6" fill="#909090" class="colorizable-hair"/>
      <!-- Transición hacia caída -->
      <rect x="57" y="13" width="6" height="2" fill="#707070" class="colorizable-hair"/>
    </svg>
  