
    <svg width="64" height="64" xmlns="http://www.w3.org/2000/svg">
      <!-- HAT_TOP (8x8) at (40,0) - Vista superior con dirección hacia atrás -->
      <rect x="40" y="0" width="8" height="8" fill="#808080" class="colorizable-hair"/>
      <!-- Líneas de dirección hacia atrás -->
      <rect x="41" y="1" width="6" height="1" fill="#909090" class="colorizable-hair"/>
      <rect x="42" y="3" width="4" height="1" fill="#909090" class="colorizable-hair"/>
      <rect x="43" y="5" width="2" height="2" fill="#909090" class="colorizable-hair"/>
      <!-- Brillo del gel -->
      <rect x="42" y="2" width="2" height="1" fill="#959595" class="colorizable-hair"/>
      <rect x="44" y="4" width="1" height="1" fill="#959595" class="colorizable-hair"/>

      <!-- HAT_BOTTOM (8x8) at (48,0) - Vista inferior (vacío) -->

      <!-- HAT_RIGHT (8x8) at (32,8) - Lado derecho corto con transición -->
      <!-- Parte superior -->
      <rect x="32" y="8" width="8" height="2" fill="#808080" class="colorizable-hair"/>
      <rect x="33" y="10" width="5" height="1" fill="#707070" class="colorizable-hair"/>
      <!-- Lados cortos -->
      <rect x="34" y="11" width="3" height="1" fill="#707070" class="colorizable-hair"/>
      <rect x="35" y="12" width="1" height="1" fill="#606060" class="colorizable-hair"/>

      <!-- HAT_FRONT (8x8) at (40,8) - Frente peinado hacia atrás -->
      <rect x="40" y="8" width="8" height="2" fill="#909090" class="colorizable-hair"/>
      <!-- Líneas de dirección -->
      <rect x="41" y="10" width="6" height="1" fill="#808080" class="colorizable-hair"/>
      <rect x="42" y="11" width="4" height="1" fill="#707070" class="colorizable-hair"/>
      <!-- Brillo -->
      <rect x="43" y="9" width="2" height="1" fill="#959595" class="colorizable-hair"/>

      <!-- HAT_LEFT (8x8) at (48,8) - Lado izquierdo corto con transición -->
      <!-- Parte superior -->
      <rect x="48" y="8" width="8" height="2" fill="#808080" class="colorizable-hair"/>
      <rect x="50" y="10" width="5" height="1" fill="#707070" class="colorizable-hair"/>
      <!-- Lados cortos -->
      <rect x="51" y="11" width="3" height="1" fill="#707070" class="colorizable-hair"/>
      <rect x="52" y="12" width="1" height="1" fill="#606060" class="colorizable-hair"/>

      <!-- HAT_BACK (8x8) at (56,8) - Parte trasera peinada -->
      <rect x="56" y="8" width="8" height="4" fill="#808080" class="colorizable-hair"/>
      <!-- Líneas de dirección -->
      <rect x="57" y="11" width="6" height="1" fill="#909090" class="colorizable-hair"/>
      <rect x="58" y="12" width="4" height="1" fill="#707070" class="colorizable-hair"/>
      <!-- Brillo -->
      <rect x="59" y="10" width="2" height="1" fill="#959595" class="colorizable-hair"/>
    </svg>
  