
    <svg width="64" height="64" xmlns="http://www.w3.org/2000/svg">
      <!-- HAT_TOP (8x8) at (40,0) - Vista superior -->
      <rect x="40" y="0" width="8" height="1" fill="#743434" class="colorizable-hair"/>
      <rect x="40" y="1" width="8" height="1" fill="#743434" class="colorizable-hair"/>
      <rect x="40" y="2" width="1" height="1" fill="#672e2e" class="colorizable-hair"/>
      <rect x="41" y="2" width="2" height="1" fill="#5a2828" class="colorizable-hair"/>
      <rect x="43" y="2" width="2" height="1" fill="#672e2e" class="colorizable-hair"/>
      <rect x="45" y="2" width="2" height="1" fill="#5a2828" class="colorizable-hair"/>
      <rect x="47" y="2" width="1" height="1" fill="#672e2e" class="colorizable-hair"/>
      <rect x="40" y="3" width="1" height="1" fill="#672e2e" class="colorizable-hair"/>
      <rect x="41" y="3" width="2" height="1" fill="#5a2828" class="colorizable-hair"/>
      <rect x="43" y="3" width="2" height="1" fill="#672e2e" class="colorizable-hair"/>
      <rect x="45" y="3" width="2" height="1" fill="#5a2828" class="colorizable-hair"/>
      <rect x="47" y="3" width="1" height="1" fill="#672e2e" class="colorizable-hair"/>
      <rect x="40" y="4" width="2" height="1" fill="#672e2e" class="colorizable-hair"/>
      <rect x="42" y="4" width="1" height="1" fill="#4d2323" class="colorizable-hair"/>
      <rect x="43" y="4" width="2" height="1" fill="#672e2e" class="colorizable-hair"/>
      <rect x="45" y="4" width="1" height="1" fill="#4d2323" class="colorizable-hair"/>
      <rect x="46" y="4" width="2" height="1" fill="#672e2e" class="colorizable-hair"/>
      <rect x="40" y="5" width="2" height="1" fill="#672e2e" class="colorizable-hair"/>
      <rect x="42" y="5" width="1" height="1" fill="#4d2323" class="colorizable-hair"/>
      <rect x="43" y="5" width="2" height="1" fill="#672e2e" class="colorizable-hair"/>
      <rect x="45" y="5" width="1" height="1" fill="#4d2323" class="colorizable-hair"/>
      <rect x="46" y="5" width="2" height="1" fill="#672e2e" class="colorizable-hair"/>
      <rect x="40" y="6" width="1" height="1" fill="#672e2e" class="colorizable-hair"/>
      <rect x="41" y="6" width="2" height="1" fill="#5a2828" class="colorizable-hair"/>
      <rect x="43" y="6" width="2" height="1" fill="#672e2e" class="colorizable-hair"/>
      <rect x="45" y="6" width="2" height="1" fill="#5a2828" class="colorizable-hair"/>
      <rect x="47" y="6" width="1" height="1" fill="#672e2e" class="colorizable-hair"/>
      <rect x="40" y="7" width="1" height="1" fill="#672e2e" class="colorizable-hair"/>
      <rect x="41" y="7" width="2" height="1" fill="#5a2828" class="colorizable-hair"/>
      <rect x="43" y="7" width="2" height="1" fill="#672e2e" class="colorizable-hair"/>
      <rect x="45" y="7" width="2" height="1" fill="#5a2828" class="colorizable-hair"/>
      <rect x="47" y="7" width="1" height="1" fill="#672e2e" class="colorizable-hair"/>

      <!-- HAT_BOTTOM (8x8) at (48,0) - Vista inferior (marco delicado) -->
      <rect x="48" y="0" width="1" height="1" fill="#672e2e" class="colorizable-hair"/>
      <rect x="49" y="0" width="6" height="1" fill="#743434" class="colorizable-hair"/>
      <rect x="55" y="0" width="1" height="1" fill="#672e2e" class="colorizable-hair"/>
      <rect x="48" y="1" width="2" height="1" fill="#672e2e" class="colorizable-hair"/>
      <rect x="50" y="1" width="4" height="1" fill="#5a2828" class="colorizable-hair"/>
      <rect x="54" y="1" width="2" height="1" fill="#672e2e" class="colorizable-hair"/>
      <rect x="48" y="2" width="1" height="1" fill="#743434" class="colorizable-hair"/>
      <rect x="49" y="2" width="1" height="1" fill="#672e2e" class="colorizable-hair"/>
      <rect x="54" y="2" width="1" height="1" fill="#672e2e" class="colorizable-hair"/>
      <rect x="55" y="2" width="1" height="1" fill="#743434" class="colorizable-hair"/>
      <rect x="48" y="3" width="1" height="1" fill="#743434" class="colorizable-hair"/>
      <rect x="49" y="3" width="1" height="1" fill="#672e2e" class="colorizable-hair"/>
      <rect x="54" y="3" width="1" height="1" fill="#672e2e" class="colorizable-hair"/>
      <rect x="55" y="3" width="1" height="1" fill="#743434" class="colorizable-hair"/>
      <rect x="48" y="4" width="1" height="1" fill="#743434" class="colorizable-hair"/>
      <rect x="49" y="4" width="1" height="1" fill="#672e2e" class="colorizable-hair"/>
      <rect x="54" y="4" width="1" height="1" fill="#672e2e" class="colorizable-hair"/>
      <rect x="55" y="4" width="1" height="1" fill="#743434" class="colorizable-hair"/>
      <rect x="48" y="5" width="1" height="1" fill="#4e2323" class="colorizable-hair"/>
      <rect x="49" y="5" width="1" height="1" fill="#672e2e" class="colorizable-hair"/>
      <rect x="54" y="5" width="1" height="1" fill="#672e2e" class="colorizable-hair"/>
      <rect x="55" y="5" width="1" height="1" fill="#743434" class="colorizable-hair"/>
      <rect x="48" y="6" width="1" height="1" fill="#4e2323" class="colorizable-hair"/>
      <rect x="49" y="6" width="1" height="1" fill="#401d1d" class="colorizable-hair"/>
      <rect x="54" y="6" width="1" height="1" fill="#401d1d" class="colorizable-hair"/>
      <rect x="55" y="6" width="1" height="1" fill="#4e2323" class="colorizable-hair"/>
      <rect x="48" y="7" width="1" height="1" fill="#4e2323" class="colorizable-hair"/>
      <rect x="55" y="7" width="1" height="1" fill="#4e2323" class="colorizable-hair"/>

      <!-- HAT_RIGHT (8x8) at (32,8) - Lado derecho -->
      <rect x="32" y="8" width="7" height="1" fill="#743434" class="colorizable-hair"/>
      <rect x="39" y="8" width="1" height="1" fill="#672e2e" class="colorizable-hair"/>
      <rect x="32" y="9" width="6" height="1" fill="#783636" class="colorizable-hair"/>
      <rect x="38" y="9" width="1" height="1" fill="#743434" class="colorizable-hair"/>
      <rect x="39" y="9" width="1" height="1" fill="#672e2e" class="colorizable-hair"/>
      <rect x="32" y="10" width="8" height="1" fill="#743434" class="colorizable-hair"/>
      <rect x="32" y="11" width="2" height="1" fill="#672e2e" class="colorizable-hair"/>
      <rect x="34" y="11" width="3" height="1" fill="#5a2828" class="colorizable-hair"/>
      <rect x="37" y="11" width="3" height="1" fill="#672e2e" class="colorizable-hair"/>
      <rect x="32" y="12" width="7" height="1" fill="#743434" class="colorizable-hair"/>
      <rect x="39" y="12" width="1" height="1" fill="#672e2e" class="colorizable-hair"/>
      <rect x="32" y="13" width="1" height="1" fill="#672e2e" class="colorizable-hair"/>
      <rect x="33" y="13" width="5" height="1" fill="#743434" class="colorizable-hair"/>
      <rect x="38" y="13" width="2" height="1" fill="#672e2e" class="colorizable-hair"/>
      <rect x="32" y="14" width="2" height="1" fill="#672e2e" class="colorizable-hair"/>
      <rect x="34" y="14" width="3" height="1" fill="#5a2828" class="colorizable-hair"/>
      <rect x="37" y="14" width="3" height="1" fill="#672e2e" class="colorizable-hair"/>
      <rect x="32" y="15" width="1" height="1" fill="#672e2e" class="colorizable-hair"/>
      <rect x="33" y="15" width="4" height="1" fill="#5a2828" class="colorizable-hair"/>
      <rect x="37" y="15" width="3" height="1" fill="#672e2e" class="colorizable-hair"/>

      <!-- HEAD_FRONT (8x8) at (8,8) - Capa BASE del pelo (tonos oscurecidos para efecto 3D) -->
      <rect x="8" y="8" width="1" height="1" fill="#512424" class="colorizable-hair"/>
      <rect x="9" y="8" width="1" height="1" fill="#542525" class="colorizable-hair"/>
      <rect x="10" y="8" width="1" height="1" fill="#512424" class="colorizable-hair"/>
      <rect x="11" y="8" width="1" height="1" fill="#512424" class="colorizable-hair"/>
      <rect x="12" y="8" width="1" height="1" fill="#512424" class="colorizable-hair"/>
      <rect x="13" y="8" width="1" height="1" fill="#512424" class="colorizable-hair"/>
      <rect x="14" y="8" width="1" height="1" fill="#542525" class="colorizable-hair"/>
      <rect x="15" y="8" width="1" height="1" fill="#512424" class="colorizable-hair"/>
      <rect x="8" y="9" width="1" height="1" fill="#512424" class="colorizable-hair"/>
      <rect x="9" y="9" width="1" height="1" fill="#512424" class="colorizable-hair"/>
      <rect x="10" y="9" width="1" height="1" fill="#512424" class="colorizable-hair"/>
      <rect x="11" y="9" width="1" height="1" fill="#482020" class="colorizable-hair"/>
      <rect x="12" y="9" width="1" height="1" fill="#482020" class="colorizable-hair"/>
      <rect x="13" y="9" width="1" height="1" fill="#482020" class="colorizable-hair"/>
      <rect x="14" y="9" width="1" height="1" fill="#512424" class="colorizable-hair"/>
      <rect x="15" y="9" width="1" height="1" fill="#512424" class="colorizable-hair"/>
      <rect x="8" y="10" width="1" height="1" fill="#512424" class="colorizable-hair"/>
      <rect x="9" y="10" width="1" height="1" fill="#482020" class="colorizable-hair"/>
      <rect x="14" y="10" width="1" height="1" fill="#482020" class="colorizable-hair"/>
      <rect x="15" y="10" width="1" height="1" fill="#512424" class="colorizable-hair"/>
      <rect x="8" y="11" width="1" height="1" fill="#3e1c1c" class="colorizable-hair"/>
      <rect x="15" y="11" width="1" height="1" fill="#3e1c1c" class="colorizable-hair"/>
      <rect x="8" y="13" width="1" height="1" fill="#482020" class="colorizable-hair"/>
      <rect x="15" y="13" width="1" height="1" fill="#482020" class="colorizable-hair"/>
      <rect x="8" y="14" width="1" height="1" fill="#3e1c1c" class="colorizable-hair"/>
      <rect x="15" y="14" width="1" height="1" fill="#3e1c1c" class="colorizable-hair"/>
      <rect x="8" y="15" width="1" height="1" fill="#361818" class="colorizable-hair"/>
      <rect x="15" y="15" width="1" height="1" fill="#361818" class="colorizable-hair"/>

      <!-- HAT_FRONT (8x8) at (40,8) - Solo HIGHLIGHTS (15 píxeles de 28 total) -->
      <!-- Fila superior completa (highlights brillantes) -->
      <rect x="40" y="8" width="1" height="1" fill="#743434" class="colorizable-hair"/>
      <rect x="41" y="8" width="1" height="1" fill="#783636" class="colorizable-hair"/>
      <rect x="42" y="8" width="1" height="1" fill="#743434" class="colorizable-hair"/>
      <rect x="43" y="8" width="1" height="1" fill="#743434" class="colorizable-hair"/>
      <rect x="44" y="8" width="1" height="1" fill="#743434" class="colorizable-hair"/>
      <rect x="45" y="8" width="1" height="1" fill="#743434" class="colorizable-hair"/>
      <rect x="46" y="8" width="1" height="1" fill="#783636" class="colorizable-hair"/>
      <rect x="47" y="8" width="1" height="1" fill="#743434" class="colorizable-hair"/>
      <!-- Fila y=9: laterales + centro (solo tonos claros) -->
      <rect x="40" y="9" width="1" height="1" fill="#743434" class="colorizable-hair"/>
      <rect x="41" y="9" width="1" height="1" fill="#743434" class="colorizable-hair"/>
      <rect x="42" y="9" width="1" height="1" fill="#743434" class="colorizable-hair"/>
      <rect x="46" y="9" width="1" height="1" fill="#743434" class="colorizable-hair"/>
      <rect x="47" y="9" width="1" height="1" fill="#743434" class="colorizable-hair"/>
      <!-- Fila y=10: solo extremos laterales (ondulación 3D) -->
      <rect x="40" y="10" width="1" height="1" fill="#743434" class="colorizable-hair"/>
      <rect x="47" y="10" width="1" height="1" fill="#743434" class="colorizable-hair"/>
      <!-- Filas y=11-15: sin píxeles en HAT, se verá el HEAD oscuro -->

      <!-- HAT_LEFT (8x8) at (48,8) - Lado izquierdo -->
      <rect x="48" y="8" width="1" height="1" fill="#672e2e" class="colorizable-hair"/>
      <rect x="49" y="8" width="7" height="1" fill="#743434" class="colorizable-hair"/>
      <rect x="48" y="9" width="1" height="1" fill="#672e2e" class="colorizable-hair"/>
      <rect x="49" y="9" width="1" height="1" fill="#743434" class="colorizable-hair"/>
      <rect x="50" y="9" width="6" height="1" fill="#783636" class="colorizable-hair"/>
      <rect x="48" y="10" width="8" height="1" fill="#743434" class="colorizable-hair"/>
      <rect x="48" y="11" width="3" height="1" fill="#672e2e" class="colorizable-hair"/>
      <rect x="51" y="11" width="3" height="1" fill="#5a2828" class="colorizable-hair"/>
      <rect x="54" y="11" width="2" height="1" fill="#672e2e" class="colorizable-hair"/>
      <rect x="48" y="12" width="1" height="1" fill="#672e2e" class="colorizable-hair"/>
      <rect x="49" y="12" width="7" height="1" fill="#743434" class="colorizable-hair"/>
      <rect x="48" y="13" width="3" height="1" fill="#672e2e" class="colorizable-hair"/>
      <rect x="51" y="13" width="5" height="1" fill="#743434" class="colorizable-hair"/>
      <rect x="48" y="14" width="3" height="1" fill="#672e2e" class="colorizable-hair"/>
      <rect x="51" y="14" width="3" height="1" fill="#5a2828" class="colorizable-hair"/>
      <rect x="54" y="14" width="2" height="1" fill="#672e2e" class="colorizable-hair"/>
      <rect x="48" y="15" width="3" height="1" fill="#672e2e" class="colorizable-hair"/>
      <rect x="51" y="15" width="4" height="1" fill="#5a2828" class="colorizable-hair"/>
      <rect x="55" y="15" width="1" height="1" fill="#672e2e" class="colorizable-hair"/>

      <!-- HAT_BACK (8x8) at (56,8) - Parte trasera -->
      <rect x="56" y="8" width="8" height="1" fill="#743434" class="colorizable-hair"/>
      <rect x="56" y="9" width="1" height="1" fill="#743434" class="colorizable-hair"/>
      <rect x="57" y="9" width="6" height="1" fill="#783636" class="colorizable-hair"/>
      <rect x="63" y="9" width="1" height="1" fill="#743434" class="colorizable-hair"/>
      <rect x="56" y="10" width="2" height="1" fill="#783636" class="colorizable-hair"/>
      <rect x="58" y="10" width="4" height="1" fill="#672e2e" class="colorizable-hair"/>
      <rect x="62" y="10" width="2" height="1" fill="#783636" class="colorizable-hair"/>
      <rect x="56" y="11" width="3" height="1" fill="#743434" class="colorizable-hair"/>
      <rect x="59" y="11" width="3" height="1" fill="#5a2828" class="colorizable-hair"/>
      <rect x="62" y="11" width="2" height="1" fill="#743434" class="colorizable-hair"/>
      <rect x="56" y="12" width="1" height="1" fill="#743434" class="colorizable-hair"/>
      <rect x="57" y="12" width="1" height="1" fill="#783636" class="colorizable-hair"/>
      <rect x="58" y="12" width="4" height="1" fill="#672e2e" class="colorizable-hair"/>
      <rect x="62" y="12" width="1" height="1" fill="#783636" class="colorizable-hair"/>
      <rect x="63" y="12" width="1" height="1" fill="#743434" class="colorizable-hair"/>
      <rect x="56" y="13" width="3" height="1" fill="#743434" class="colorizable-hair"/>
      <rect x="59" y="13" width="3" height="1" fill="#5a2828" class="colorizable-hair"/>
      <rect x="62" y="13" width="2" height="1" fill="#743434" class="colorizable-hair"/>
      <rect x="56" y="14" width="1" height="1" fill="#743434" class="colorizable-hair"/>
      <rect x="57" y="14" width="1" height="1" fill="#783636" class="colorizable-hair"/>
      <rect x="58" y="14" width="4" height="1" fill="#672e2e" class="colorizable-hair"/>
      <rect x="62" y="14" width="1" height="1" fill="#783636" class="colorizable-hair"/>
      <rect x="63" y="14" width="1" height="1" fill="#743434" class="colorizable-hair"/>
      <rect x="56" y="15" width="3" height="1" fill="#672e2e" class="colorizable-hair"/>
      <rect x="59" y="15" width="3" height="1" fill="#5a2828" class="colorizable-hair"/>
      <rect x="62" y="15" width="2" height="1" fill="#672e2e" class="colorizable-hair"/>
    </svg>
  