
    <svg width="64" height="64" xmlns="http://www.w3.org/2000/svg" shape-rendering="crispEdges">
      <!-- ========== CAPA BASE (HEAD) - Pelo pegado a la cabeza ========== -->

      <!-- HEAD_TOP (8x8) at (8,0) - Forma base con raya lateral -->
      <rect x="8" y="0" width="8" height="8" fill="#707070" class="colorizable-hair"/>
      <rect x="9" y="0" width="6" height="7" fill="#808080" class="colorizable-hair"/>
      <rect x="10" y="1" width="1" height="6" fill="#606060" class="colorizable-hair"/>

      <!-- HEAD_RIGHT (8x8) at (0,8) - Lado derecho pegado -->
      <rect x="0" y="8" width="8" height="6" fill="#707070" class="colorizable-hair"/>
      <rect x="1" y="9" width="6" height="4" fill="#808080" class="colorizable-hair"/>

      <!-- HEAD_FRONT (8x8) at (8,8) - Frente con flequillo lateral base -->
      <rect x="8" y="8" width="8" height="2" fill="#808080" class="colorizable-hair"/>
      <rect x="8" y="10" width="3" height="2" fill="#707070" class="colorizable-hair"/>

      <!-- HEAD_LEFT (8x8) at (16,8) - Lado izquierdo pegado -->
      <rect x="16" y="8" width="8" height="6" fill="#707070" class="colorizable-hair"/>
      <rect x="17" y="9" width="6" height="4" fill="#808080" class="colorizable-hair"/>

      <!-- HEAD_BACK (8x8) at (24,8) - Nuca con pelo descendiendo -->
      <rect x="24" y="8" width="8" height="5" fill="#707070" class="colorizable-hair"/>
      <rect x="25" y="9" width="6" height="4" fill="#808080" class="colorizable-hair"/>

      <!-- ========== CAPA OVERLAY (HAT) - Mechones y profundidad ========== -->

      <!-- HAT_TOP (8x8) at (40,0) - Volumen superior -->
      <rect x="41" y="0" width="6" height="1" fill="#909090" class="colorizable-hair"/>

      <!-- HAT_RIGHT (8x8) at (32,8) - Mechones laterales -->
      <rect x="32" y="12" width="6" height="2" fill="#707070" class="colorizable-hair"/>
      <rect x="32" y="14" width="4" height="1" fill="#707070" class="colorizable-hair"/>

      <!-- HAT_FRONT (8x8) at (40,8) - Puntas del flequillo -->
      <rect x="40" y="12" width="2" height="1" fill="#707070" class="colorizable-hair"/>

      <!-- HAT_LEFT (8x8) at (48,8) - Mechones laterales -->
      <rect x="50" y="12" width="6" height="2" fill="#707070" class="colorizable-hair"/>
      <rect x="52" y="14" width="4" height="1" fill="#707070" class="colorizable-hair"/>

      <!-- HAT_BACK (8x8) at (56,8) - Mechones traseros -->
      <rect x="56" y="13" width="8" height="1" fill="#707070" class="colorizable-hair"/>
    </svg>
  