
    <svg width="64" height="64" xmlns="http://www.w3.org/2000/svg">
      <!-- HAT_TOP (8x8) at (40,0) - Vista superior -->
      <rect x="40" y="0" width="1" height="1" fill="#1e1410" class="colorizable-skin"/>
      <rect x="41" y="0" width="1" height="1" fill="#211712" class="colorizable-skin"/>
      <rect x="43" y="0" width="1" height="1" fill="#211712" class="colorizable-skin"/>
      <rect x="47" y="0" width="1" height="1" fill="#1e1410" class="colorizable-skin"/>
      <rect x="40" y="1" width="1" height="1" fill="#1e1410" class="colorizable-skin"/>
      <rect x="42" y="1" width="1" height="1" fill="#1e1410" class="colorizable-skin"/>
      <rect x="43" y="1" width="1" height="1" fill="#1c130f" class="colorizable-skin"/>
      <rect x="44" y="1" width="1" height="1" fill="#1c130f" class="colorizable-skin"/>
      <rect x="45" y="1" width="1" height="1" fill="#1e1410" class="colorizable-skin"/>
      <rect x="46" y="1" width="1" height="1" fill="#1e1410" class="colorizable-skin"/>
      <rect x="47" y="1" width="1" height="1" fill="#1e1410" class="colorizable-skin"/>
      <rect x="42" y="2" width="1" height="1" fill="#1e1410" class="colorizable-skin"/>
      <rect x="43" y="2" width="1" height="1" fill="#1c130f" class="colorizable-skin"/>
      <rect x="44" y="2" width="1" height="1" fill="#1c130f" class="colorizable-skin"/>
      <rect x="46" y="2" width="1" height="1" fill="#211712" class="colorizable-skin"/>
      <rect x="47" y="2" width="1" height="1" fill="#211712" class="colorizable-skin"/>
      <rect x="40" y="3" width="1" height="1" fill="#211712" class="colorizable-skin"/>
      <rect x="42" y="3" width="1" height="1" fill="#1e1410" class="colorizable-skin"/>
      <rect x="43" y="3" width="1" height="1" fill="#1c130f" class="colorizable-skin"/>
      <rect x="44" y="3" width="1" height="1" fill="#1c130f" class="colorizable-skin"/>
      <rect x="45" y="3" width="1" height="1" fill="#1e1410" class="colorizable-skin"/>
      <rect x="43" y="4" width="1" height="1" fill="#1c130f" class="colorizable-skin"/>
      <rect x="44" y="4" width="1" height="1" fill="#1c130f" class="colorizable-skin"/>
      <rect x="45" y="4" width="1" height="1" fill="#1e1410" class="colorizable-skin"/>
      <rect x="47" y="4" width="1" height="1" fill="#211712" class="colorizable-skin"/>
      <rect x="40" y="5" width="1" height="1" fill="#211712" class="colorizable-skin"/>
      <rect x="42" y="5" width="1" height="1" fill="#1e1410" class="colorizable-skin"/>
      <rect x="43" y="5" width="1" height="1" fill="#1c130f" class="colorizable-skin"/>
      <rect x="44" y="5" width="1" height="1" fill="#1c130f" class="colorizable-skin"/>
      <rect x="45" y="5" width="1" height="1" fill="#1e1410" class="colorizable-skin"/>
      <rect x="47" y="5" width="1" height="1" fill="#211712" class="colorizable-skin"/>
      <rect x="40" y="6" width="1" height="1" fill="#1e1410" class="colorizable-skin"/>
      <rect x="41" y="6" width="1" height="1" fill="#1e1410" class="colorizable-skin"/>
      <rect x="42" y="6" width="1" height="1" fill="#1e1410" class="colorizable-skin"/>
      <rect x="43" y="6" width="1" height="1" fill="#1c130f" class="colorizable-skin"/>
      <rect x="44" y="6" width="1" height="1" fill="#1c130f" class="colorizable-skin"/>
      <rect x="45" y="6" width="1" height="1" fill="#1e1410" class="colorizable-skin"/>
      <rect x="46" y="6" width="1" height="1" fill="#1e1410" class="colorizable-skin"/>
      <rect x="47" y="6" width="1" height="1" fill="#1e1410" class="colorizable-skin"/>
      <rect x="40" y="7" width="1" height="1" fill="#1e1410" class="colorizable-skin"/>
      <rect x="41" y="7" width="1" height="1" fill="#1e1410" class="colorizable-skin"/>
      <rect x="42" y="7" width="1" height="1" fill="#1e1410" class="colorizable-skin"/>
      <rect x="43" y="7" width="1" height="1" fill="#1e1410" class="colorizable-skin"/>
      <rect x="44" y="7" width="1" height="1" fill="#1e1410" class="colorizable-skin"/>
      <rect x="45" y="7" width="1" height="1" fill="#1e1410" class="colorizable-skin"/>
      <rect x="46" y="7" width="1" height="1" fill="#1e1410" class="colorizable-skin"/>
      <rect x="47" y="7" width="1" height="1" fill="#1e1410" class="colorizable-skin"/>

      <!-- HAT_BOTTOM (8x8) at (48,0) - Vista inferior -->


      <!-- HAT_RIGHT (8x8) at (32,8) - Lado derecho -->
      <rect x="32" y="8" width="1" height="1" fill="#1e1410" class="colorizable-skin"/>
      <rect x="36" y="8" width="1" height="1" fill="#1e1410" class="colorizable-skin"/>
      <rect x="37" y="8" width="1" height="1" fill="#1e1410" class="colorizable-skin"/>
      <rect x="39" y="8" width="1" height="1" fill="#1e1410" class="colorizable-skin"/>
      <rect x="33" y="9" width="1" height="1" fill="#1e1410" class="colorizable-skin"/>
      <rect x="35" y="9" width="1" height="1" fill="#1e1410" class="colorizable-skin"/>
      <rect x="36" y="9" width="1" height="1" fill="#1e1410" class="colorizable-skin"/>
      <rect x="37" y="9" width="1" height="1" fill="#1e1410" class="colorizable-skin"/>
      <rect x="39" y="9" width="1" height="1" fill="#1e1410" class="colorizable-skin"/>
      <rect x="33" y="10" width="1" height="1" fill="#1e1410" class="colorizable-skin"/>
      <rect x="34" y="10" width="1" height="1" fill="#1e1410" class="colorizable-skin"/>
      <rect x="39" y="10" width="1" height="1" fill="#1e1410" class="colorizable-skin"/>
      <rect x="32" y="11" width="1" height="1" fill="#1e1410" class="colorizable-skin"/>
      <rect x="34" y="11" width="1" height="1" fill="#1e1410" class="colorizable-skin"/>
      <rect x="36" y="11" width="1" height="1" fill="#1e1410" class="colorizable-skin"/>
      <rect x="37" y="11" width="1" height="1" fill="#1e1410" class="colorizable-skin"/>
      <rect x="39" y="11" width="1" height="1" fill="#1e1410" class="colorizable-skin"/>
      <rect x="32" y="12" width="1" height="1" fill="#1e1410" class="colorizable-skin"/>
      <rect x="33" y="12" width="1" height="1" fill="#1e1410" class="colorizable-skin"/>
      <rect x="34" y="12" width="1" height="1" fill="#1e1410" class="colorizable-skin"/>
      <rect x="35" y="12" width="1" height="1" fill="#1e1410" class="colorizable-skin"/>
      <rect x="36" y="12" width="1" height="1" fill="#1e1410" class="colorizable-skin"/>
      <rect x="37" y="12" width="1" height="1" fill="#1e1410" class="colorizable-skin"/>
      <rect x="32" y="13" width="1" height="1" fill="#1a120e" class="colorizable-skin"/>
      <rect x="33" y="13" width="1" height="1" fill="#1a120e" class="colorizable-skin"/>
      <rect x="34" y="13" width="1" height="1" fill="#1a120e" class="colorizable-skin"/>
      <rect x="35" y="13" width="1" height="1" fill="#1a120e" class="colorizable-skin"/>
      <rect x="36" y="13" width="1" height="1" fill="#1a120e" class="colorizable-skin"/>
      <rect x="37" y="13" width="1" height="1" fill="#1a120e" class="colorizable-skin"/>
      <rect x="38" y="13" width="1" height="1" fill="#1a120e" class="colorizable-skin"/>
      <rect x="39" y="13" width="1" height="1" fill="#1e1410" class="colorizable-skin"/>
      <rect x="32" y="14" width="1" height="1" fill="#1e1410" class="colorizable-skin"/>
      <rect x="33" y="14" width="1" height="1" fill="#160f0c" class="colorizable-skin"/>
      <rect x="34" y="14" width="1" height="1" fill="#160f0c" class="colorizable-skin"/>
      <rect x="35" y="14" width="1" height="1" fill="#160f0c" class="colorizable-skin"/>
      <rect x="36" y="14" width="1" height="1" fill="#160f0c" class="colorizable-skin"/>
      <rect x="37" y="14" width="1" height="1" fill="#160f0c" class="colorizable-skin"/>
      <rect x="38" y="14" width="1" height="1" fill="#1e1410" class="colorizable-skin"/>
      <rect x="33" y="15" width="1" height="1" fill="#1e1410" class="colorizable-skin"/>
      <rect x="34" y="15" width="1" height="1" fill="#1e1410" class="colorizable-skin"/>
      <rect x="35" y="15" width="1" height="1" fill="#1e1410" class="colorizable-skin"/>
      <rect x="36" y="15" width="1" height="1" fill="#1e1410" class="colorizable-skin"/>
      <rect x="38" y="15" width="1" height="1" fill="#1e1410" class="colorizable-skin"/>
      <rect x="39" y="15" width="1" height="1" fill="#1e1410" class="colorizable-skin"/>

      <!-- HAT_FRONT (8x8) at (40,8) - Frente -->
      <rect x="40" y="8" width="1" height="1" fill="#1e1410" class="colorizable-skin"/>
      <rect x="41" y="8" width="1" height="1" fill="#1e1410" class="colorizable-skin"/>
      <rect x="42" y="8" width="1" height="1" fill="#1e1410" class="colorizable-skin"/>
      <rect x="43" y="8" width="1" height="1" fill="#463126" class="colorizable-skin"/>
      <rect x="44" y="8" width="1" height="1" fill="#4e362a" class="colorizable-skin"/>
      <rect x="45" y="8" width="1" height="1" fill="#4e362a" class="colorizable-skin"/>
      <rect x="46" y="8" width="1" height="1" fill="#1e1410" class="colorizable-skin"/>
      <rect x="47" y="8" width="1" height="1" fill="#1e1410" class="colorizable-skin"/>
      <rect x="40" y="9" width="1" height="1" fill="#1e1410" class="colorizable-skin"/>
      <rect x="41" y="9" width="1" height="1" fill="#1e1410" class="colorizable-skin"/>
      <rect x="42" y="9" width="1" height="1" fill="#463126" class="colorizable-skin"/>
      <rect x="43" y="9" width="1" height="1" fill="#4e362a" class="colorizable-skin"/>
      <rect x="44" y="9" width="1" height="1" fill="#4e362a" class="colorizable-skin"/>
      <rect x="45" y="9" width="1" height="1" fill="#1e1410" class="colorizable-skin"/>
      <rect x="46" y="9" width="1" height="1" fill="#1e1410" class="colorizable-skin"/>
      <rect x="47" y="9" width="1" height="1" fill="#1e1410" class="colorizable-skin"/>
      <rect x="40" y="10" width="1" height="1" fill="#1e1410" class="colorizable-skin"/>
      <rect x="41" y="10" width="1" height="1" fill="#463126" class="colorizable-skin"/>
      <rect x="42" y="10" width="1" height="1" fill="#4e362a" class="colorizable-skin"/>
      <rect x="43" y="10" width="1" height="1" fill="#4e362a" class="colorizable-skin"/>
      <rect x="44" y="10" width="1" height="1" fill="#1e1410" class="colorizable-skin"/>
      <rect x="45" y="10" width="1" height="1" fill="#1e1410" class="colorizable-skin"/>
      <rect x="46" y="10" width="1" height="1" fill="#1e1410" class="colorizable-skin"/>
      <rect x="47" y="10" width="1" height="1" fill="#1e1410" class="colorizable-skin"/>
      <rect x="40" y="11" width="1" height="1" fill="#463126" class="colorizable-skin"/>
      <rect x="41" y="11" width="1" height="1" fill="#4e362a" class="colorizable-skin"/>
      <rect x="42" y="11" width="1" height="1" fill="#4e362a" class="colorizable-skin"/>
      <rect x="43" y="11" width="1" height="1" fill="#1a120e" class="colorizable-skin"/>
      <rect x="44" y="11" width="1" height="1" fill="#1a120e" class="colorizable-skin"/>
      <rect x="45" y="11" width="1" height="1" fill="#1a120e" class="colorizable-skin"/>
      <rect x="46" y="11" width="1" height="1" fill="#1a120e" class="colorizable-skin"/>
      <rect x="47" y="11" width="1" height="1" fill="#1a120e" class="colorizable-skin"/>
      <rect x="40" y="12" width="1" height="1" fill="#4e362a" class="colorizable-skin"/>
      <rect x="41" y="12" width="1" height="1" fill="#4e362a" class="colorizable-skin"/>
      <rect x="42" y="12" width="1" height="1" fill="#1a120e" class="colorizable-skin"/>
      <rect x="43" y="12" width="1" height="1" fill="#1a120e" class="colorizable-skin"/>
      <rect x="47" y="12" width="1" height="1" fill="#1a120e" class="colorizable-skin"/>
      <rect x="40" y="13" width="1" height="1" fill="#1a120e" class="colorizable-skin"/>
      <rect x="41" y="13" width="1" height="1" fill="#160f0c" class="colorizable-skin"/>
      <rect x="42" y="13" width="1" height="1" fill="#160f0c" class="colorizable-skin"/>
      <rect x="40" y="14" width="1" height="1" fill="#1a120e" class="colorizable-skin"/>
      <rect x="41" y="14" width="1" height="1" fill="#1a120e" class="colorizable-skin"/>
      <rect x="40" y="15" width="1" height="1" fill="#1a120e" class="colorizable-skin"/>

      <!-- HAT_LEFT (8x8) at (48,8) - Lado izquierdo -->
      <rect x="48" y="8" width="1" height="1" fill="#1e1410" class="colorizable-skin"/>
      <rect x="49" y="8" width="1" height="1" fill="#1e1410" class="colorizable-skin"/>
      <rect x="51" y="8" width="1" height="1" fill="#1e1410" class="colorizable-skin"/>
      <rect x="52" y="8" width="1" height="1" fill="#1e1410" class="colorizable-skin"/>
      <rect x="53" y="8" width="1" height="1" fill="#1e1410" class="colorizable-skin"/>
      <rect x="54" y="8" width="1" height="1" fill="#1e1410" class="colorizable-skin"/>
      <rect x="55" y="8" width="1" height="1" fill="#1e1410" class="colorizable-skin"/>
      <rect x="50" y="9" width="1" height="1" fill="#1e1410" class="colorizable-skin"/>
      <rect x="53" y="9" width="1" height="1" fill="#1e1410" class="colorizable-skin"/>
      <rect x="55" y="9" width="1" height="1" fill="#1e1410" class="colorizable-skin"/>
      <rect x="48" y="10" width="1" height="1" fill="#1e1410" class="colorizable-skin"/>
      <rect x="49" y="11" width="1" height="1" fill="#1e1410" class="colorizable-skin"/>
      <rect x="50" y="11" width="1" height="1" fill="#1e1410" class="colorizable-skin"/>
      <rect x="51" y="11" width="1" height="1" fill="#1e1410" class="colorizable-skin"/>
      <rect x="52" y="11" width="1" height="1" fill="#1e1410" class="colorizable-skin"/>
      <rect x="53" y="11" width="1" height="1" fill="#1e1410" class="colorizable-skin"/>
      <rect x="48" y="12" width="1" height="1" fill="#1e1410" class="colorizable-skin"/>
      <rect x="49" y="12" width="1" height="1" fill="#1e1410" class="colorizable-skin"/>
      <rect x="50" y="12" width="1" height="1" fill="#1e1410" class="colorizable-skin"/>
      <rect x="51" y="12" width="1" height="1" fill="#1e1410" class="colorizable-skin"/>
      <rect x="52" y="12" width="1" height="1" fill="#1e1410" class="colorizable-skin"/>
      <rect x="53" y="12" width="1" height="1" fill="#1e1410" class="colorizable-skin"/>
      <rect x="54" y="12" width="1" height="1" fill="#1e1410" class="colorizable-skin"/>
      <rect x="55" y="12" width="1" height="1" fill="#1e1410" class="colorizable-skin"/>
      <rect x="48" y="13" width="1" height="1" fill="#1e1410" class="colorizable-skin"/>
      <rect x="49" y="13" width="1" height="1" fill="#1a120e" class="colorizable-skin"/>
      <rect x="50" y="13" width="1" height="1" fill="#1a120e" class="colorizable-skin"/>
      <rect x="51" y="13" width="1" height="1" fill="#1a120e" class="colorizable-skin"/>
      <rect x="52" y="13" width="1" height="1" fill="#1a120e" class="colorizable-skin"/>
      <rect x="53" y="13" width="1" height="1" fill="#1a120e" class="colorizable-skin"/>
      <rect x="54" y="13" width="1" height="1" fill="#1a120e" class="colorizable-skin"/>
      <rect x="55" y="13" width="1" height="1" fill="#1a120e" class="colorizable-skin"/>
      <rect x="49" y="14" width="1" height="1" fill="#1e1410" class="colorizable-skin"/>
      <rect x="50" y="14" width="1" height="1" fill="#160f0c" class="colorizable-skin"/>
      <rect x="51" y="14" width="1" height="1" fill="#160f0c" class="colorizable-skin"/>
      <rect x="52" y="14" width="1" height="1" fill="#160f0c" class="colorizable-skin"/>
      <rect x="53" y="14" width="1" height="1" fill="#160f0c" class="colorizable-skin"/>
      <rect x="54" y="14" width="1" height="1" fill="#160f0c" class="colorizable-skin"/>
      <rect x="49" y="15" width="1" height="1" fill="#1e1410" class="colorizable-skin"/>
      <rect x="50" y="15" width="1" height="1" fill="#1e1410" class="colorizable-skin"/>
      <rect x="51" y="15" width="1" height="1" fill="#1e1410" class="colorizable-skin"/>
      <rect x="52" y="15" width="1" height="1" fill="#1e1410" class="colorizable-skin"/>
      <rect x="53" y="15" width="1" height="1" fill="#1e1410" class="colorizable-skin"/>
      <rect x="54" y="15" width="1" height="1" fill="#1e1410" class="colorizable-skin"/>

      <!-- HAT_BACK (8x8) at (56,8) - Parte trasera -->
      <rect x="56" y="8" width="1" height="1" fill="#1e1410" class="colorizable-skin"/>
      <rect x="57" y="8" width="1" height="1" fill="#1e1410" class="colorizable-skin"/>
      <rect x="58" y="8" width="1" height="1" fill="#1e1410" class="colorizable-skin"/>
      <rect x="61" y="8" width="1" height="1" fill="#1e1410" class="colorizable-skin"/>
      <rect x="57" y="9" width="1" height="1" fill="#1e1410" class="colorizable-skin"/>
      <rect x="59" y="9" width="1" height="1" fill="#1e1410" class="colorizable-skin"/>
      <rect x="62" y="9" width="1" height="1" fill="#1e1410" class="colorizable-skin"/>
      <rect x="58" y="10" width="1" height="1" fill="#1e1410" class="colorizable-skin"/>
      <rect x="59" y="10" width="1" height="1" fill="#1e1410" class="colorizable-skin"/>
      <rect x="61" y="10" width="1" height="1" fill="#1e1410" class="colorizable-skin"/>
      <rect x="63" y="10" width="1" height="1" fill="#1e1410" class="colorizable-skin"/>
      <rect x="57" y="11" width="1" height="1" fill="#1e1410" class="colorizable-skin"/>
      <rect x="58" y="11" width="1" height="1" fill="#1e1410" class="colorizable-skin"/>
      <rect x="59" y="11" width="1" height="1" fill="#1e1410" class="colorizable-skin"/>
      <rect x="60" y="11" width="1" height="1" fill="#1e1410" class="colorizable-skin"/>
      <rect x="61" y="11" width="1" height="1" fill="#1e1410" class="colorizable-skin"/>
      <rect x="62" y="11" width="1" height="1" fill="#1e1410" class="colorizable-skin"/>
      <rect x="63" y="11" width="1" height="1" fill="#1e1410" class="colorizable-skin"/>
      <rect x="57" y="12" width="1" height="1" fill="#1a120e" class="colorizable-skin"/>
      <rect x="58" y="12" width="1" height="1" fill="#1a120e" class="colorizable-skin"/>
      <rect x="59" y="12" width="1" height="1" fill="#1a120e" class="colorizable-skin"/>
      <rect x="60" y="12" width="1" height="1" fill="#1a120e" class="colorizable-skin"/>
      <rect x="61" y="12" width="1" height="1" fill="#1a120e" class="colorizable-skin"/>
      <rect x="62" y="12" width="1" height="1" fill="#1a120e" class="colorizable-skin"/>
      <rect x="63" y="12" width="1" height="1" fill="#1e1410" class="colorizable-skin"/>
      <rect x="56" y="13" width="1" height="1" fill="#1e1410" class="colorizable-skin"/>
      <rect x="57" y="13" width="1" height="1" fill="#1e1410" class="colorizable-skin"/>
      <rect x="58" y="13" width="1" height="1" fill="#160f0c" class="colorizable-skin"/>
      <rect x="59" y="13" width="1" height="1" fill="#160f0c" class="colorizable-skin"/>
      <rect x="60" y="13" width="1" height="1" fill="#160f0c" class="colorizable-skin"/>
      <rect x="61" y="13" width="1" height="1" fill="#160f0c" class="colorizable-skin"/>
      <rect x="62" y="13" width="1" height="1" fill="#1e1410" class="colorizable-skin"/>
      <rect x="59" y="14" width="1" height="1" fill="#1e1410" class="colorizable-skin"/>
      <rect x="60" y="14" width="1" height="1" fill="#1e1410" class="colorizable-skin"/>
      <rect x="62" y="14" width="1" height="1" fill="#1e1410" class="colorizable-skin"/>
      <rect x="56" y="15" width="1" height="1" fill="#1e1410" class="colorizable-skin"/>
      <rect x="57" y="15" width="1" height="1" fill="#1e1410" class="colorizable-skin"/>
      <rect x="58" y="15" width="1" height="1" fill="#1e1410" class="colorizable-skin"/>
      <rect x="59" y="15" width="1" height="1" fill="#1e1410" class="colorizable-skin"/>
      <rect x="60" y="15" width="1" height="1" fill="#1e1410" class="colorizable-skin"/>
      <rect x="61" y="15" width="1" height="1" fill="#1e1410" class="colorizable-skin"/>
      <rect x="62" y="15" width="1" height="1" fill="#1e1410" class="colorizable-skin"/>
      <rect x="63" y="15" width="1" height="1" fill="#1e1410" class="colorizable-skin"/>
    </svg>
  