
    <svg width="64" height="64" xmlns="http://www.w3.org/2000/svg" shape-rendering="crispEdges">
      <!-- ======================================== -->
      <!-- CAPA BASE (HEAD) - Pelo pegado a cabeza -->
      <!-- ======================================== -->

      <!-- HEAD_TOP (8x8) at (8,0) - Forma base -->
      <rect x="8" y="0" width="8" height="8" fill="#707070" class="colorizable-hair"/>
      <rect x="9" y="1" width="6" height="6" fill="#808080" class="colorizable-hair"/>

      <!-- HEAD_RIGHT (8x8) at (0,8) - Pelo pegado lado -->
      <rect x="0" y="8" width="8" height="2" fill="#808080" class="colorizable-hair"/>
      <rect x="0" y="10" width="6" height="1" fill="#808080" class="colorizable-hair"/>
      <rect x="1" y="11" width="5" height="1" fill="#707070" class="colorizable-hair"/>
      <rect x="2" y="12" width="3" height="1" fill="#707070" class="colorizable-hair"/>

      <!-- HEAD_FRONT (8x8) at (8,8) - Frente con flequillo base -->
      <rect x="8" y="8" width="8" height="2" fill="#808080" class="colorizable-hair"/>
      <rect x="9" y="10" width="2" height="1" fill="#707070" class="colorizable-hair"/>
      <rect x="13" y="10" width="2" height="1" fill="#707070" class="colorizable-hair"/>

      <!-- HEAD_LEFT (8x8) at (16,8) - Pelo pegado lado -->
      <rect x="16" y="8" width="8" height="2" fill="#808080" class="colorizable-hair"/>
      <rect x="18" y="10" width="6" height="1" fill="#808080" class="colorizable-hair"/>
      <rect x="18" y="11" width="5" height="1" fill="#707070" class="colorizable-hair"/>
      <rect x="19" y="12" width="3" height="1" fill="#707070" class="colorizable-hair"/>

      <!-- HEAD_BACK (8x8) at (24,8) - Nuca base -->
      <rect x="24" y="8" width="8" height="3" fill="#808080" class="colorizable-hair"/>
      <rect x="25" y="11" width="6" height="1" fill="#707070" class="colorizable-hair"/>

      <!-- ======================================== -->
      <!-- CAPA OVERLAY (HAT) - Profundidad y volumen -->
      <!-- ======================================== -->

      <!-- HAT_TOP (8x8) at (40,0) - Volumen superior -->
      <rect x="41" y="0" width="6" height="1" fill="#909090" class="colorizable-hair"/>
      <!-- Línea central de profundidad -->
      <rect x="43" y="1" width="2" height="6" fill="#606060" class="colorizable-hair" opacity="0.3"/>

      <!-- HAT_BOTTOM (8x8) at (48,0) - Vista inferior (vacío) -->

      <!-- HAT_RIGHT (8x8) at (32,8) - Mechones sobresalientes -->
      <rect x="32" y="13" width="1" height="1" fill="#606060" class="colorizable-hair"/>
      <rect x="33" y="14" width="1" height="1" fill="#505050" class="colorizable-hair"/>

      <!-- HAT_FRONT (8x8) at (40,8) - Puntas de flequillo -->
      <rect x="41" y="11" width="1" height="1" fill="#606060" class="colorizable-hair"/>
      <rect x="46" y="11" width="1" height="1" fill="#606060" class="colorizable-hair"/>

      <!-- HAT_LEFT (8x8) at (48,8) - Mechones sobresalientes -->
      <rect x="55" y="13" width="1" height="1" fill="#606060" class="colorizable-hair"/>
      <rect x="54" y="14" width="1" height="1" fill="#505050" class="colorizable-hair"/>

      <!-- HAT_BACK (8x8) at (56,8) - Volumen trasero sutil -->
      <!-- (mínimo para mantener apariencia limpia) -->
    </svg>
  