
    <svg width="64" height="64" xmlns="http://www.w3.org/2000/svg">
      <!-- HAT_TOP (8x8) at (40,0) - Vista superior con volumen en corona -->
      <rect x="40" y="0" width="8" height="8" fill="#808080" class="colorizable-hair"/>
      <rect x="41" y="0" width="6" height="1" fill="#909090" class="colorizable-hair"/>
      <rect x="42" y="1" width="4" height="1" fill="#909090" class="colorizable-hair"/>
      <!-- Centro más oscuro para profundidad -->
      <rect x="43" y="2" width="2" height="4" fill="#707070" class="colorizable-hair"/>
      <rect x="44" y="3" width="1" height="2" fill="#606060" class="colorizable-hair"/>

      <!-- HAT_BOTTOM (8x8) at (48,0) - Vista inferior (vacío para pixie) -->

      <!-- HAT_RIGHT (8x8) at (32,8) - Lado derecho muy corto -->
      <!-- Cobertura superior corta -->
      <rect x="32" y="8" width="8" height="2" fill="#808080" class="colorizable-hair"/>
      <rect x="33" y="10" width="6" height="1" fill="#707070" class="colorizable-hair"/>
      <!-- Transición sutil hacia abajo -->
      <rect x="33" y="11" width="4" height="1" fill="#707070" class="colorizable-hair"/>
      <rect x="34" y="12" width="2" height="1" fill="#606060" class="colorizable-hair"/>

      <!-- HAT_FRONT (8x8) at (40,8) - Frente con flequillo corto estilizado -->
      <rect x="40" y="8" width="8" height="2" fill="#808080" class="colorizable-hair"/>
      <!-- Flequillo texturizado -->
      <rect x="41" y="10" width="2" height="1" fill="#707070" class="colorizable-hair"/>
      <rect x="43" y="10" width="1" height="1" fill="#909090" class="colorizable-hair"/>
      <rect x="45" y="10" width="2" height="1" fill="#707070" class="colorizable-hair"/>
      <!-- Puntas del flequillo -->
      <rect x="41" y="11" width="1" height="1" fill="#606060" class="colorizable-hair"/>
      <rect x="43" y="11" width="1" height="1" fill="#606060" class="colorizable-hair"/>
      <rect x="46" y="11" width="1" height="1" fill="#606060" class="colorizable-hair"/>

      <!-- HAT_LEFT (8x8) at (48,8) - Lado izquierdo muy corto -->
      <!-- Cobertura superior corta -->
      <rect x="48" y="8" width="8" height="2" fill="#808080" class="colorizable-hair"/>
      <rect x="49" y="10" width="6" height="1" fill="#707070" class="colorizable-hair"/>
      <!-- Transición sutil hacia abajo -->
      <rect x="51" y="11" width="4" height="1" fill="#707070" class="colorizable-hair"/>
      <rect x="52" y="12" width="2" height="1" fill="#606060" class="colorizable-hair"/>

      <!-- HAT_BACK (8x8) at (56,8) - Parte trasera muy corta -->
      <rect x="56" y="8" width="8" height="2" fill="#808080" class="colorizable-hair"/>
      <rect x="57" y="10" width="6" height="1" fill="#707070" class="colorizable-hair"/>
      <rect x="58" y="11" width="4" height="1" fill="#606060" class="colorizable-hair"/>
    </svg>
  