
    <svg width="64" height="64" xmlns="http://www.w3.org/2000/svg" shape-rendering="crispEdges">
      <!-- ========== CAPA BASE (HEAD) - Pelo pegado a la cabeza ========== -->

      <!-- HEAD_TOP (8x8) at (8,0) - Forma base con ondas -->
      <rect x="8" y="0" width="8" height="8" fill="#672e2e" class="colorizable-hair"/>
      <rect x="9" y="0" width="6" height="7" fill="#743434" class="colorizable-hair"/>
      <rect x="10" y="2" width="1" height="4" fill="#5a2828" class="colorizable-hair"/>
      <rect x="11" y="3" width="2" height="2" fill="#5a2828" class="colorizable-hair"/>
      <rect x="13" y="2" width="1" height="4" fill="#5a2828" class="colorizable-hair"/>
      <rect x="14" y="3" width="2" height="2" fill="#5a2828" class="colorizable-hair"/>

      <!-- HEAD_RIGHT (8x8) at (0,8) - Lado derecho ondulado -->
      <rect x="0" y="8" width="8" height="8" fill="#672e2e" class="colorizable-hair"/>
      <rect x="1" y="9" width="6" height="6" fill="#743434" class="colorizable-hair"/>
      <rect x="2" y="11" width="3" height="2" fill="#5a2828" class="colorizable-hair"/>

      <!-- HEAD_FRONT (8x8) at (8,8) - Frente ondulado -->
      <rect x="8" y="8" width="8" height="6" fill="#743434" class="colorizable-hair"/>
      <rect x="9" y="9" width="6" height="4" fill="#672e2e" class="colorizable-hair"/>
      <rect x="8" y="11" width="1" height="2" fill="#5a2828" class="colorizable-hair"/>
      <rect x="15" y="11" width="1" height="2" fill="#5a2828" class="colorizable-hair"/>

      <!-- HEAD_LEFT (8x8) at (16,8) - Lado izquierdo ondulado -->
      <rect x="16" y="8" width="8" height="8" fill="#672e2e" class="colorizable-hair"/>
      <rect x="17" y="9" width="6" height="6" fill="#743434" class="colorizable-hair"/>
      <rect x="19" y="11" width="3" height="2" fill="#5a2828" class="colorizable-hair"/>

      <!-- HEAD_BACK (8x8) at (24,8) - Nuca ondulada -->
      <rect x="24" y="8" width="8" height="8" fill="#672e2e" class="colorizable-hair"/>
      <rect x="25" y="9" width="6" height="6" fill="#743434" class="colorizable-hair"/>
      <rect x="27" y="10" width="4" height="4" fill="#5a2828" class="colorizable-hair"/>

      <!-- ========== CAPA OVERLAY (HAT) - Ondas y profundidad ========== -->

      <!-- HAT_TOP (8x8) at (40,0) - Ondas superiores -->
      <rect x="40" y="2" width="1" height="1" fill="#672e2e" class="colorizable-hair"/>
      <rect x="41" y="2" width="2" height="1" fill="#5a2828" class="colorizable-hair"/>
      <rect x="43" y="2" width="2" height="1" fill="#672e2e" class="colorizable-hair"/>
      <rect x="45" y="2" width="2" height="1" fill="#5a2828" class="colorizable-hair"/>
      <rect x="47" y="2" width="1" height="1" fill="#672e2e" class="colorizable-hair"/>
      <rect x="40" y="3" width="1" height="1" fill="#672e2e" class="colorizable-hair"/>
      <rect x="41" y="3" width="2" height="1" fill="#5a2828" class="colorizable-hair"/>
      <rect x="43" y="3" width="2" height="1" fill="#672e2e" class="colorizable-hair"/>
      <rect x="45" y="3" width="2" height="1" fill="#5a2828" class="colorizable-hair"/>
      <rect x="47" y="3" width="1" height="1" fill="#672e2e" class="colorizable-hair"/>
      <rect x="40" y="4" width="2" height="1" fill="#672e2e" class="colorizable-hair"/>
      <rect x="42" y="4" width="1" height="1" fill="#4d2323" class="colorizable-hair"/>
      <rect x="43" y="4" width="2" height="1" fill="#672e2e" class="colorizable-hair"/>
      <rect x="45" y="4" width="1" height="1" fill="#4d2323" class="colorizable-hair"/>
      <rect x="46" y="4" width="2" height="1" fill="#672e2e" class="colorizable-hair"/>

      <!-- HAT_BOTTOM (8x8) at (48,0) - Marco delicado inferior -->
      <rect x="48" y="0" width="1" height="1" fill="#672e2e" class="colorizable-hair"/>
      <rect x="49" y="0" width="6" height="1" fill="#743434" class="colorizable-hair"/>
      <rect x="55" y="0" width="1" height="1" fill="#672e2e" class="colorizable-hair"/>
      <rect x="48" y="1" width="2" height="1" fill="#672e2e" class="colorizable-hair"/>
      <rect x="50" y="1" width="4" height="1" fill="#5a2828" class="colorizable-hair"/>
      <rect x="54" y="1" width="2" height="1" fill="#672e2e" class="colorizable-hair"/>

      <!-- HAT_RIGHT (8x8) at (32,8) - Mechones ondulados laterales -->
      <rect x="34" y="11" width="3" height="1" fill="#5a2828" class="colorizable-hair"/>
      <rect x="32" y="14" width="2" height="1" fill="#672e2e" class="colorizable-hair"/>
      <rect x="34" y="14" width="3" height="1" fill="#5a2828" class="colorizable-hair"/>

      <!-- HAT_FRONT (8x8) at (40,8) - Mechones frontales -->
      <rect x="40" y="11" width="1" height="1" fill="#5a2828" class="colorizable-hair"/>
      <rect x="47" y="11" width="1" height="1" fill="#5a2828" class="colorizable-hair"/>
      <rect x="40" y="13" width="1" height="1" fill="#672e2e" class="colorizable-hair"/>
      <rect x="47" y="13" width="1" height="1" fill="#672e2e" class="colorizable-hair"/>

      <!-- HAT_LEFT (8x8) at (48,8) - Mechones ondulados laterales -->
      <rect x="51" y="11" width="3" height="1" fill="#5a2828" class="colorizable-hair"/>
      <rect x="51" y="14" width="3" height="1" fill="#5a2828" class="colorizable-hair"/>
      <rect x="54" y="14" width="2" height="1" fill="#672e2e" class="colorizable-hair"/>

      <!-- HAT_BACK (8x8) at (56,8) - Ondas traseras -->
      <rect x="58" y="10" width="4" height="1" fill="#672e2e" class="colorizable-hair"/>
      <rect x="59" y="11" width="3" height="1" fill="#5a2828" class="colorizable-hair"/>
      <rect x="58" y="14" width="4" height="1" fill="#672e2e" class="colorizable-hair"/>
    </svg>
  