
    <svg width="64" height="64" xmlns="http://www.w3.org/2000/svg" shape-rendering="crispEdges">
      <!-- ========== CAPA BASE (HEAD) - Pelo pegado a la cabeza ========== -->

      <!-- HEAD_TOP (8x8) at (8,0) - Forma base compacta -->
      <rect x="8" y="0" width="8" height="8" fill="#707070" class="colorizable-hair"/>
      <rect x="9" y="0" width="6" height="6" fill="#808080" class="colorizable-hair"/>
      <rect x="10" y="1" width="4" height="4" fill="#707070" class="colorizable-hair"/>

      <!-- HEAD_RIGHT (8x8) at (0,8) - Lado derecho compacto -->
      <rect x="0" y="8" width="8" height="2" fill="#707070" class="colorizable-hair"/>
      <rect x="1" y="10" width="6" height="1" fill="#606060" class="colorizable-hair"/>

      <!-- HEAD_FRONT (8x8) at (8,8) - Frente con pompa base -->
      <rect x="8" y="8" width="8" height="2" fill="#808080" class="colorizable-hair"/>
      <rect x="9" y="10" width="6" height="1" fill="#707070" class="colorizable-hair"/>

      <!-- HEAD_LEFT (8x8) at (16,8) - Lado izquierdo compacto -->
      <rect x="16" y="8" width="8" height="2" fill="#707070" class="colorizable-hair"/>
      <rect x="17" y="10" width="6" height="1" fill="#606060" class="colorizable-hair"/>

      <!-- HEAD_BACK (8x8) at (24,8) - Nuca base -->
      <rect x="24" y="8" width="8" height="3" fill="#707070" class="colorizable-hair"/>
      <rect x="25" y="11" width="6" height="1" fill="#606060" class="colorizable-hair"/>

      <!-- ========== CAPA OVERLAY (HAT) - Volumen y profundidad ========== -->

      <!-- HAT_TOP (8x8) at (40,0) - Volumen frontal (pompa) -->
      <rect x="41" y="0" width="6" height="2" fill="#909090" class="colorizable-hair"/>
      <rect x="42" y="1" width="4" height="1" fill="#959595" class="colorizable-hair"/>

      <!-- HAT_RIGHT (8x8) at (32,8) - Mechones laterales mínimos -->
      <rect x="33" y="8" width="4" height="1" fill="#808080" class="colorizable-hair"/>

      <!-- HAT_FRONT (8x8) at (40,8) - Puntas de la pompa -->
      <rect x="41" y="10" width="6" height="1" fill="#959595" class="colorizable-hair"/>
      <rect x="42" y="11" width="4" height="1" fill="#808080" class="colorizable-hair"/>

      <!-- HAT_LEFT (8x8) at (48,8) - Mechones laterales mínimos -->
      <rect x="51" y="8" width="4" height="1" fill="#808080" class="colorizable-hair"/>

      <!-- HAT_BACK (8x8) at (56,8) - Volumen trasero mínimo -->
      <rect x="58" y="8" width="4" height="1" fill="#808080" class="colorizable-hair"/>
    </svg>
  