
    <svg width="64" height="64" xmlns="http://www.w3.org/2000/svg" shape-rendering="crispEdges">
      <!-- ========== CAPA BASE (HEAD) - Pelo pegado a la cabeza ========== -->

      <!-- HEAD_TOP (8x8) at (8,0) - Forma base con volumen -->
      <rect x="8" y="0" width="8" height="8" fill="#808080" class="colorizable-hair"/>
      <rect x="9" y="0" width="6" height="7" fill="#909090" class="colorizable-hair"/>

      <!-- HEAD_RIGHT (8x8) at (0,8) - Lado derecho con capas base -->
      <rect x="0" y="8" width="8" height="5" fill="#808080" class="colorizable-hair"/>
      <rect x="1" y="10" width="6" height="3" fill="#909090" class="colorizable-hair"/>

      <!-- HEAD_FRONT (8x8) at (8,8) - Frente con flequillo base -->
      <rect x="8" y="8" width="8" height="2" fill="#909090" class="colorizable-hair"/>
      <rect x="9" y="10" width="6" height="2" fill="#808080" class="colorizable-hair"/>

      <!-- HEAD_LEFT (8x8) at (16,8) - Lado izquierdo con capas base -->
      <rect x="16" y="8" width="8" height="5" fill="#808080" class="colorizable-hair"/>
      <rect x="17" y="10" width="6" height="3" fill="#909090" class="colorizable-hair"/>

      <!-- HEAD_BACK (8x8) at (24,8) - Nuca con capas base -->
      <rect x="24" y="8" width="8" height="5" fill="#808080" class="colorizable-hair"/>
      <rect x="25" y="11" width="6" height="2" fill="#909090" class="colorizable-hair"/>

      <!-- ========== CAPA OVERLAY (HAT) - Textura despeinada ========== -->

      <!-- HAT_TOP (8x8) at (40,0) - Textura irregular superior -->
      <rect x="40" y="0" width="8" height="2" fill="#909090" class="colorizable-hair"/>
      <rect x="41" y="2" width="2" height="1" fill="#909090" class="colorizable-hair"/>
      <rect x="45" y="2" width="2" height="1" fill="#909090" class="colorizable-hair"/>

      <!-- HAT_RIGHT (8x8) at (32,8) - Mechones feathered -->
      <rect x="32" y="12" width="5" height="1" fill="#707070" class="colorizable-hair"/>
      <rect x="32" y="13" width="3" height="1" fill="#707070" class="colorizable-hair"/>
      <rect x="32" y="14" width="1" height="1" fill="#606060" class="colorizable-hair"/>

      <!-- HAT_FRONT (8x8) at (40,8) - Mechones irregulares frontales -->
      <rect x="41" y="10" width="2" height="2" fill="#808080" class="colorizable-hair"/>
      <rect x="45" y="10" width="2" height="2" fill="#808080" class="colorizable-hair"/>

      <!-- HAT_LEFT (8x8) at (48,8) - Mechones feathered -->
      <rect x="51" y="12" width="5" height="1" fill="#707070" class="colorizable-hair"/>
      <rect x="53" y="13" width="3" height="1" fill="#707070" class="colorizable-hair"/>
      <rect x="55" y="14" width="1" height="1" fill="#606060" class="colorizable-hair"/>

      <!-- HAT_BACK (8x8) at (56,8) - Capas traseras visibles -->
      <rect x="57" y="13" width="3" height="1" fill="#707070" class="colorizable-hair"/>
      <rect x="60" y="13" width="3" height="1" fill="#707070" class="colorizable-hair"/>
    </svg>
  