
    <svg width="64" height="64" xmlns="http://www.w3.org/2000/svg">
      <!-- HAT_TOP (8x8) at (40,0) - Vista superior circular -->
      <rect x="40" y="0" width="8" height="8" fill="#808080" class="colorizable-hair"/>
      <!-- Forma circular en la parte superior -->
      <rect x="41" y="0" width="6" height="8" fill="#909090" class="colorizable-hair"/>
      <rect x="42" y="1" width="4" height="6" fill="#959595" class="colorizable-hair"/>
      <!-- Centro -->
      <rect x="43" y="2" width="2" height="4" fill="#808080" class="colorizable-hair"/>

      <!-- HAT_BOTTOM (8x8) at (48,0) - Vista inferior (vacío) -->

      <!-- HAT_RIGHT (8x8) at (32,8) - Lado derecho con corte circular -->
      <!-- Cobertura superior -->
      <rect x="32" y="8" width="8" height="4" fill="#808080" class="colorizable-hair"/>
      <rect x="33" y="10" width="6" height="2" fill="#909090" class="colorizable-hair"/>
      <!-- Línea de corte circular -->
      <rect x="32" y="12" width="7" height="1" fill="#707070" class="colorizable-hair"/>
      <rect x="33" y="13" width="6" height="1" fill="#707070" class="colorizable-hair"/>
      <rect x="34" y="14" width="4" height="1" fill="#606060" class="colorizable-hair"/>

      <!-- HAT_FRONT (8x8) at (40,8) - Frente con flequillo circular -->
      <rect x="40" y="8" width="8" height="4" fill="#808080" class="colorizable-hair"/>
      <rect x="41" y="10" width="6" height="2" fill="#909090" class="colorizable-hair"/>
      <!-- Flequillo recto circular -->
      <rect x="40" y="12" width="8" height="1" fill="#707070" class="colorizable-hair"/>
      <rect x="41" y="13" width="6" height="1" fill="#707070" class="colorizable-hair"/>
      <rect x="42" y="14" width="4" height="1" fill="#606060" class="colorizable-hair"/>

      <!-- HAT_LEFT (8x8) at (48,8) - Lado izquierdo con corte circular -->
      <!-- Cobertura superior -->
      <rect x="48" y="8" width="8" height="4" fill="#808080" class="colorizable-hair"/>
      <rect x="49" y="10" width="6" height="2" fill="#909090" class="colorizable-hair"/>
      <!-- Línea de corte circular -->
      <rect x="49" y="12" width="7" height="1" fill="#707070" class="colorizable-hair"/>
      <rect x="49" y="13" width="6" height="1" fill="#707070" class="colorizable-hair"/>
      <rect x="50" y="14" width="4" height="1" fill="#606060" class="colorizable-hair"/>

      <!-- HAT_BACK (8x8) at (56,8) - Parte trasera con línea circular -->
      <rect x="56" y="8" width="8" height="4" fill="#808080" class="colorizable-hair"/>
      <rect x="57" y="10" width="6" height="2" fill="#909090" class="colorizable-hair"/>
      <!-- Línea de corte -->
      <rect x="57" y="12" width="6" height="1" fill="#707070" class="colorizable-hair"/>
      <rect x="58" y="13" width="4" height="1" fill="#707070" class="colorizable-hair"/>
      <rect x="59" y="14" width="2" height="1" fill="#606060" class="colorizable-hair"/>
    </svg>
  