
    <svg width="64" height="64" xmlns="http://www.w3.org/2000/svg" shape-rendering="crispEdges">
      <!-- ======================================== -->
      <!-- CAPA BASE (HEAD) - Pelo muy pegado -->
      <!-- ======================================== -->

      <!-- HEAD_TOP (8x8) at (8,0) - Base uniforme -->
      <rect x="8" y="0" width="8" height="8" fill="#707070" class="colorizable-hair"/>

      <!-- HEAD_RIGHT (8x8) at (0,8) - Pelo muy corto pegado -->
      <rect x="0" y="8" width="8" height="8" fill="#707070" class="colorizable-hair"/>

      <!-- HEAD_FRONT (8x8) at (8,8) - Frente pegado -->
      <rect x="8" y="8" width="8" height="4" fill="#707070" class="colorizable-hair"/>

      <!-- HEAD_LEFT (8x8) at (16,8) - Pelo muy corto pegado -->
      <rect x="16" y="8" width="8" height="8" fill="#707070" class="colorizable-hair"/>

      <!-- HEAD_BACK (8x8) at (24,8) - Nuca pegada -->
      <rect x="24" y="8" width="8" height="8" fill="#707070" class="colorizable-hair"/>

      <!-- ======================================== -->
      <!-- CAPA OVERLAY (HAT) - Textura y profundidad -->
      <!-- ======================================== -->

      <!-- HAT_TOP (8x8) at (40,0) - Textura de pelo muy corto -->
      <rect x="41" y="1" width="1" height="1" fill="#808080" class="colorizable-hair"/>
      <rect x="43" y="1" width="1" height="1" fill="#808080" class="colorizable-hair"/>
      <rect x="45" y="1" width="1" height="1" fill="#808080" class="colorizable-hair"/>
      <rect x="42" y="3" width="1" height="1" fill="#808080" class="colorizable-hair"/>
      <rect x="44" y="3" width="1" height="1" fill="#808080" class="colorizable-hair"/>
      <rect x="46" y="3" width="1" height="1" fill="#808080" class="colorizable-hair"/>
      <rect x="41" y="5" width="1" height="1" fill="#808080" class="colorizable-hair"/>
      <rect x="43" y="5" width="1" height="1" fill="#808080" class="colorizable-hair"/>
      <rect x="45" y="5" width="1" height="1" fill="#808080" class="colorizable-hair"/>

      <!-- HAT_BOTTOM (8x8) at (48,0) - Vista inferior (vacío) -->

      <!-- HAT_RIGHT (8x8) at (32,8) - Textura lado derecho -->
      <rect x="33" y="9" width="1" height="1" fill="#808080" class="colorizable-hair"/>
      <rect x="35" y="10" width="1" height="1" fill="#808080" class="colorizable-hair"/>
      <rect x="37" y="11" width="1" height="1" fill="#808080" class="colorizable-hair"/>
      <rect x="34" y="13" width="1" height="1" fill="#808080" class="colorizable-hair"/>

      <!-- HAT_FRONT (8x8) at (40,8) - Textura frontal sutil -->
      <rect x="41" y="9" width="1" height="1" fill="#808080" class="colorizable-hair"/>
      <rect x="43" y="9" width="1" height="1" fill="#808080" class="colorizable-hair"/>
      <rect x="45" y="9" width="1" height="1" fill="#808080" class="colorizable-hair"/>
      <rect x="42" y="11" width="1" height="1" fill="#808080" class="colorizable-hair"/>
      <rect x="44" y="11" width="1" height="1" fill="#808080" class="colorizable-hair"/>

      <!-- HAT_LEFT (8x8) at (48,8) - Textura lado izquierdo -->
      <rect x="49" y="9" width="1" height="1" fill="#808080" class="colorizable-hair"/>
      <rect x="51" y="10" width="1" height="1" fill="#808080" class="colorizable-hair"/>
      <rect x="53" y="11" width="1" height="1" fill="#808080" class="colorizable-hair"/>
      <rect x="50" y="13" width="1" height="1" fill="#808080" class="colorizable-hair"/>

      <!-- HAT_BACK (8x8) at (56,8) - Textura trasera -->
      <rect x="57" y="9" width="1" height="1" fill="#808080" class="colorizable-hair"/>
      <rect x="59" y="10" width="1" height="1" fill="#808080" class="colorizable-hair"/>
      <rect x="61" y="11" width="1" height="1" fill="#808080" class="colorizable-hair"/>
      <rect x="58" y="13" width="1" height="1" fill="#808080" class="colorizable-hair"/>
    </svg>
  